<svg width="30" height="30" viewBox="0 0 30 30" fill="none" xmlns="http://www.w3.org/2000/svg">
<path fill-rule="evenodd" clip-rule="evenodd" d="M7.50002 2.07549e-09H26.7857C28.5609 2.07549e-09 30 1.43909 30 3.21429V22.5C30.0001 24.2656 28.576 25.7008 26.8104 25.7143H26.7857V8.57142C26.7822 5.61421 24.3858 3.21781 21.4286 3.21429H4.28573V3.18962C4.29929 1.42408 5.73442 -6.2777e-05 7.50002 2.07549e-09ZM3.21428 5.35713H21.4285C23.2037 5.35713 24.6428 6.79622 24.6428 8.57142V26.7857C24.6428 28.5609 23.2037 30 21.4285 30H3.21428C1.43908 30 0 28.5609 0 26.7857V8.57142C0 6.79622 1.43908 5.35713 3.21428 5.35713Z" fill="#52585C"/>
</svg>
