<svg width="30" height="27" viewBox="0 0 30 27" fill="none" xmlns="http://www.w3.org/2000/svg">
<path fill-rule="evenodd" clip-rule="evenodd" d="M17.6909 0.5C24.478 0.5 30 5.10686 30 10.7695C30 13.8404 28.3965 16.6976 25.5882 18.6527C25.3219 20.2532 26.245 21.9286 26.2548 21.9463C26.4656 22.3164 26.4502 22.7697 26.2135 23.127C26.0017 23.4464 25.6461 23.6368 25.2619 23.6368C25.2209 23.6368 25.179 23.6345 25.1374 23.63C23.9413 23.4978 22.0115 22.5935 19.3972 20.9413C18.8342 21.0062 18.2616 21.0391 17.6909 21.0391C10.9036 21.0391 5.38162 16.4322 5.38162 10.7695C5.38162 5.10691 10.9036 0.5 17.6909 0.5ZM12.5246 10.5065C12.5246 11.5083 13.3408 12.3205 14.3479 12.3205C15.3549 12.3205 16.1715 11.5083 16.1714 10.5065C16.1714 9.5047 15.3549 8.6926 14.3479 8.6926C13.3408 8.6926 12.5246 9.5047 12.5246 10.5065ZM21.0341 12.3205C20.0268 12.3205 19.2104 11.5083 19.2104 10.5065C19.2104 9.5047 20.0268 8.6926 21.0341 8.6926C22.041 8.6926 22.8574 9.5047 22.8574 10.5065C22.8574 11.5083 22.041 12.3205 21.0341 12.3205ZM4.82387 15.4857C5.50092 16.8021 6.4637 17.9798 7.68506 18.9859C10.1409 21.0088 13.3841 22.1228 16.8172 22.1228C17.2336 22.1228 17.6513 22.1052 18.066 22.0722C16.2099 23.1209 13.9653 23.7355 11.5495 23.7355C10.9178 23.7355 10.2847 23.6932 9.66536 23.6096C7.82639 24.7849 5.39895 26.1787 4.02048 26.331C4.00631 26.3325 3.99233 26.3333 3.97831 26.3333C3.85149 26.3333 3.73199 26.2701 3.66123 26.1633C3.5827 26.0448 3.57751 25.8925 3.64788 25.769C3.66036 25.7475 4.84124 23.6418 4.33236 21.6516C1.57712 19.835 0 17.1345 0 14.2218C0 10.9799 1.97923 8.112 4.99403 6.39364C4.93574 6.49808 4.87852 6.603 4.82387 6.70922C4.11003 8.0972 3.74806 9.5735 3.74806 11.0974C3.74806 12.6213 4.10998 14.0977 4.82387 15.4857Z" fill="#52585C"/>
</svg>
