<svg width="33" height="40" viewBox="0 0 33 40" fill="none" xmlns="http://www.w3.org/2000/svg">
<path fill-rule="evenodd" clip-rule="evenodd" d="M22.1773 1.16213L20.7575 4.44027C23.6476 5.99352 25.6131 9.02495 25.6132 12.5014C25.6132 12.9613 25.2359 13.3347 24.771 13.3347H7.929C7.4641 13.3347 7.0869 12.9613 7.0869 12.5014C7.0869 9.02495 9.0523 5.99352 11.9441 4.44027L10.5243 1.16213C10.3407 0.740442 10.5377 0.250475 10.9655 0.0688469C11.3883 -0.11614 11.8885 0.0822053 12.0704 0.507176L13.4934 3.78695C14.3945 3.49697 15.3545 3.33534 16.3516 3.33534C17.3487 3.33534 18.3087 3.49697 19.2097 3.78695L20.6295 0.507176C20.8114 0.0822053 21.3116 -0.1145 21.7343 0.0688469C22.1622 0.250553 22.3609 0.738801 22.1773 1.16213ZM12.1394 9.16822C12.1394 9.62819 12.5167 10.0015 12.9815 10.0015C13.4464 10.0015 13.8237 9.62819 13.8237 9.16822C13.8237 8.70825 13.4464 8.33492 12.9815 8.33492C12.5167 8.33492 12.1394 8.70825 12.1394 9.16822ZM18.8763 9.16822C18.8763 9.62819 19.2536 10.0015 19.7184 10.0015C20.1833 10.0015 20.5606 9.62819 20.5606 9.16822C20.5606 8.70825 20.1833 8.33492 19.7184 8.33492C19.2536 8.33492 18.8763 8.70825 18.8763 9.16822ZM7.9289 15.001H24.771C25.2358 15.001 25.6131 15.3727 25.6131 15.8343V29.1667C25.6131 31.1799 24.1646 32.8632 22.2446 33.2498V37.4995C22.2446 38.8778 21.1112 39.9993 19.7183 39.9993C18.3254 39.9993 17.192 38.8778 17.192 37.4995V33.3332H15.5078V37.4995C15.5078 38.8778 14.3744 39.9993 12.9815 39.9993C11.5886 39.9993 10.4552 38.8778 10.4552 37.4995V33.2498C8.5352 32.8615 7.0867 31.1799 7.0867 29.1667V15.8343C7.0867 15.3743 7.464 15.001 7.9289 15.001ZM29.8237 15.001C28.4308 15.001 27.2974 16.1225 27.2974 17.5008V25.8336C27.2974 27.2119 28.4308 28.3334 29.8237 28.3334C31.2166 28.3334 32.35 27.2119 32.35 25.8336V17.5008C32.35 16.1226 31.2166 15.001 29.8237 15.001ZM0.349976 17.501C0.349976 16.1227 1.48342 15.0011 2.87629 15.0011C4.26915 15.0011 5.4026 16.1228 5.4026 17.501V25.8337C5.4026 27.212 4.26915 28.3336 2.87629 28.3336C1.48342 28.3336 0.349976 27.212 0.349976 25.8337V17.501Z" fill="#D8D8D8"/>
</svg>
