<svg width="80" height="96" viewBox="0 0 80 96" fill="none" xmlns="http://www.w3.org/2000/svg">
<path d="M11.7137 60.5258C11.7137 64.3796 9.07814 67.5347 5.85841 67.5347C2.63858 67.5347 0 64.3828 0 60.5258V37.5875C0 33.7336 2.63553 30.5784 5.85841 30.5784C9.08129 30.5784 11.7137 33.7336 11.7137 37.5875V60.5258ZM80 60.5258C80 64.3796 77.3645 67.5347 74.1416 67.5347C70.9188 67.5347 68.2832 64.3828 68.2832 60.5258V37.5875C68.2832 33.7336 70.9188 30.5784 74.1416 30.5784C77.3645 30.5784 80 33.7336 80 37.5875V60.5258ZM52.8054 8.40776L56.5634 1.53665C56.8709 0.975803 56.7786 0.320965 56.3634 0.085969C55.9484 -0.149017 55.3517 0.114173 55.0472 0.675014L51.2032 7.70592C47.7743 6.33048 43.9333 5.56283 39.8739 5.56283C35.7838 5.56283 31.9151 6.34614 28.4646 7.74041L24.6021 0.678152C24.2946 0.117301 23.7011 -0.149017 23.2859 0.0891072C22.8708 0.327232 22.7785 0.978941 23.086 1.53978L26.8624 8.44535C19.0051 12.2052 13.7126 19.2644 13.7126 27.3543C13.7126 28.1753 13.771 28.9867 13.8756 29.7857H65.8753C65.9829 28.9867 66.0383 28.1784 66.0383 27.3543C66.0383 19.2394 60.7119 12.1614 52.8116 8.41096L52.8054 8.40776ZM27.9972 20.4017C26.7333 20.4017 25.7092 19.3584 25.7092 18.0706C25.7092 16.7829 26.7333 15.7395 27.9972 15.7395C29.2611 15.7395 30.2852 16.7829 30.2852 18.0706C30.2852 19.3584 29.2611 20.4017 27.9972 20.4017ZM51.8736 20.4017C50.6097 20.4017 49.5856 19.3584 49.5856 18.0706C49.5856 16.7829 50.6097 15.7395 51.8736 15.7395C53.1375 15.7395 54.1616 16.7829 54.1616 18.0706C54.1616 19.3584 53.1375 20.4017 51.8736 20.4017ZM13.7065 32.1012V71.1756H13.7279C13.9955 74.4748 16.9754 77.0973 20.5858 77.0973H59.1527C62.76 77.0973 65.74 74.4748 66.0106 71.1756H66.0321V32.1012H13.7095H13.7065ZM36.1251 76.9031V88.991C36.1251 92.8449 33.4897 96 30.2668 96C27.0439 96 24.4115 92.8449 24.4115 88.991V76.9124L36.1251 76.9031ZM55.6469 76.8968V88.991C55.6469 92.8449 53.0115 96 49.7886 96C46.5657 96 43.9302 92.8449 43.9302 88.991V76.8968H55.6469Z" fill="url(#paint0_linear)"/>
<defs>
<linearGradient id="paint0_linear" x1="1.76471" y1="5.09734" x2="90.93" y2="17.5146" gradientUnits="userSpaceOnUse">
<stop stop-color="#981563"/>
<stop offset="0.505208" stop-color="#435A94"/>
<stop offset="0.973958" stop-color="#159890"/>
</linearGradient>
</defs>
</svg>
