<svg width="237" height="70" viewBox="0 0 237 70" fill="none" xmlns="http://www.w3.org/2000/svg">
<path d="M0 10.5C0 7.23841 0 5.60761 0.532843 4.32122C1.2433 2.60602 2.60602 1.2433 4.32122 0.532843C5.60761 0 7.23841 0 10.5 0H226.5C229.762 0 231.392 0 232.679 0.532843C234.394 1.2433 235.757 2.60602 236.467 4.32122C237 5.60761 237 7.23841 237 10.5V59.5C237 62.7616 237 64.3924 236.467 65.6788C235.757 67.394 234.394 68.7567 232.679 69.4672C231.392 70 229.762 70 226.5 70H10.5C7.23841 70 5.60761 70 4.32122 69.4672C2.60602 68.7567 1.2433 67.394 0.532843 65.6788C0 64.3924 0 62.7616 0 59.5V10.5Z" fill="#0C0D10"/>
<path d="M161.014 33.6016V37.6109H158.178V40.2402H161.014V49.1739C161.014 52.2244 162.571 53.4446 166.489 53.4446C167.178 53.4446 167.834 53.372 168.407 53.2849V50.6846C167.916 50.7282 167.604 50.7573 167.063 50.7573C165.309 50.7573 164.538 50.0309 164.538 48.3749V40.2402H168.407V37.6109H164.538V33.6016H161.014Z" fill="white"/>
<path d="M178.389 53.6625C183.602 53.6625 186.799 50.5684 186.799 45.4406C186.799 40.3419 183.586 37.2332 178.389 37.2332C173.175 37.2332 169.962 40.3419 169.962 45.4406C169.962 50.5684 173.159 53.6625 178.389 53.6625ZM178.389 50.888C175.323 50.888 173.602 48.8979 173.602 45.4406C173.602 42.0124 175.323 40.0078 178.389 40.0078C181.438 40.0078 183.176 42.0124 183.176 45.4406C183.176 48.8834 181.438 50.888 178.389 50.888Z" fill="white"/>
<path d="M189.534 53.3575H193.059V44.017C193.059 41.7945 194.944 40.2983 197.616 40.2983C198.239 40.2983 199.289 40.4 199.584 40.4871V37.4075C199.207 37.3204 198.534 37.2768 198.01 37.2768C195.682 37.2768 193.698 38.4099 193.19 39.9642H192.928V37.5383H189.534V53.3575Z" fill="white"/>
<path d="M208.335 39.8915C210.942 39.8915 212.647 41.504 212.729 43.988H203.712C203.909 41.5185 205.729 39.8915 208.335 39.8915ZM212.713 49.0867C212.057 50.3215 210.598 51.0042 208.467 51.0042C205.647 51.0042 203.827 49.2465 203.712 46.472V46.2977H216.319V45.2082C216.319 40.2402 213.319 37.2332 208.352 37.2332C203.319 37.2332 200.122 40.4435 200.122 45.4987C200.122 50.5539 203.253 53.6625 208.368 53.6625C212.45 53.6625 215.303 51.9194 216.106 49.0867H212.713Z" fill="white"/>
<path d="M137.899 47.5157C138.171 51.4002 141.824 53.8845 147.262 53.8845C153.073 53.8845 156.709 51.2797 156.709 47.1242C156.709 43.8571 154.636 42.0503 149.607 41.0114L146.905 40.4243C143.71 39.7618 142.419 38.8735 142.419 37.3227C142.419 35.3654 144.424 34.0856 147.432 34.0856C150.286 34.0856 152.257 35.3353 152.614 37.3377H156.318C156.097 33.6791 152.461 31.1045 147.483 31.1045C142.13 31.1045 138.562 33.6791 138.562 37.5485C138.562 40.7404 140.584 42.6375 145.019 43.5559L148.179 44.2335C151.425 44.911 152.852 45.9047 152.852 47.5609C152.852 49.4881 150.609 50.8883 147.551 50.8883C144.271 50.8883 141.994 49.5784 141.671 47.5157H137.899Z" fill="white"/>
<path d="M101.387 37.2768C98.9603 37.2768 96.8619 38.3517 95.7799 40.153H95.5176V37.5383H92.124V58.616H95.6487V50.9606H95.9274C96.8619 52.6312 98.8783 53.619 101.419 53.619C105.928 53.619 108.797 50.4667 108.797 45.4406C108.797 40.4145 105.928 37.2768 101.387 37.2768ZM100.387 50.8154C97.4357 50.8154 95.5831 48.7526 95.5831 45.4551C95.5831 42.1431 97.4357 40.0804 100.403 40.0804C103.387 40.0804 105.174 42.0996 105.174 45.4406C105.174 48.7962 103.387 50.8154 100.387 50.8154Z" fill="white"/>
<path d="M121.13 37.2768C118.704 37.2768 116.606 38.3517 115.524 40.153H115.261V37.5383H111.868V58.616H115.392V50.9606H115.671C116.606 52.6312 118.622 53.619 121.163 53.619C125.671 53.619 128.54 50.4667 128.54 45.4406C128.54 40.4145 125.671 37.2768 121.13 37.2768ZM120.13 50.8154C117.179 50.8154 115.327 48.7526 115.327 45.4551C115.327 42.1431 117.179 40.0804 120.147 40.0804C123.13 40.0804 124.917 42.0996 124.917 45.4406C124.917 48.7962 123.13 50.8154 120.13 50.8154Z" fill="white"/>
<path d="M85.8 53.3575H89.8441L80.9913 31.6315H76.8963L68.0435 53.3575H71.9516L74.2115 47.591H83.5571L85.8 53.3575ZM78.7484 35.5762H79.0372L82.5886 44.7604H75.1801L78.7484 35.5762Z" fill="white"/>
<path d="M70.4109 15.2442V25.725H74.6815C78.2063 25.725 80.2473 23.8002 80.2473 20.4519C80.2473 17.1544 78.1899 15.2442 74.6815 15.2442H70.4109ZM72.247 16.7259H74.4766C76.9275 16.7259 78.3784 18.1059 78.3784 20.4737C78.3784 22.8778 76.9521 24.2433 74.4766 24.2433H72.247V16.7259Z" fill="white"/>
<path d="M86.4984 25.8775C89.105 25.8775 90.7034 24.3304 90.7034 21.7665C90.7034 19.2172 89.0968 17.6628 86.4984 17.6628C83.8917 17.6628 82.2851 19.2172 82.2851 21.7665C82.2851 24.3304 83.8835 25.8775 86.4984 25.8775ZM86.4984 24.4902C84.9655 24.4902 84.1048 23.4952 84.1048 21.7665C84.1048 20.0524 84.9655 19.0501 86.4984 19.0501C88.023 19.0501 88.8919 20.0524 88.8919 21.7665C88.8919 23.4879 88.023 24.4902 86.4984 24.4902Z" fill="white"/>
<path d="M104.315 17.8154H102.553L100.963 23.8511H100.823L98.9873 17.8154H97.2988L95.4626 23.8511H95.3315L93.7331 17.8154H91.9461L94.4052 25.725H96.2168L98.0529 19.8999H98.1922L100.037 25.725H101.865L104.315 17.8154Z" fill="white"/>
<path d="M106.345 25.725H108.107V21.0983C108.107 19.8636 108.935 19.0937 110.239 19.0937C111.542 19.0937 112.165 19.7256 112.165 20.9966V25.725H113.927V20.6044C113.927 18.7233 112.829 17.6628 110.837 17.6628C109.493 17.6628 108.607 18.1931 108.173 19.0719H108.042V17.8154H106.345V25.725Z" fill="white"/>
<path d="M116.703 25.725H118.465V14.7285H116.703V25.725Z" fill="white"/>
<path d="M125.093 25.8775C127.7 25.8775 129.298 24.3304 129.298 21.7665C129.298 19.2172 127.692 17.6628 125.093 17.6628C122.487 17.6628 120.88 19.2172 120.88 21.7665C120.88 24.3304 122.478 25.8775 125.093 25.8775ZM125.093 24.4902C123.56 24.4902 122.7 23.4952 122.7 21.7665C122.7 20.0524 123.56 19.0501 125.093 19.0501C126.618 19.0501 127.487 20.0524 127.487 21.7665C127.487 23.4879 126.618 24.4902 125.093 24.4902Z" fill="white"/>
<path d="M134.549 24.5411C133.59 24.5411 132.894 24.1271 132.894 23.4153C132.894 22.718 133.451 22.3476 134.68 22.275L136.861 22.1515V22.8124C136.861 23.793 135.877 24.5411 134.549 24.5411ZM134.098 25.8557C135.271 25.8557 136.246 25.4054 136.779 24.6137H136.918V25.725H138.615V20.3212C138.615 18.6506 137.353 17.6628 135.115 17.6628C133.09 17.6628 131.648 18.5344 131.467 19.8926H133.172C133.369 19.3334 134.049 19.0138 135.033 19.0138C136.238 19.0138 136.861 19.4859 136.861 20.3212V21.0039L134.443 21.1274C132.32 21.2436 131.123 22.0643 131.123 23.4879C131.123 24.9333 132.377 25.8557 134.098 25.8557Z" fill="white"/>
<path d="M144.596 25.8557C145.825 25.8557 146.866 25.34 147.399 24.4757H147.538V25.725H149.227V14.7285H147.465V19.0719H147.333C146.85 18.2003 145.817 17.6846 144.596 17.6846C142.341 17.6846 140.891 19.268 140.891 21.7665C140.891 24.2723 142.325 25.8557 144.596 25.8557ZM145.096 19.0864C146.571 19.0864 147.497 20.1251 147.497 21.7738C147.497 23.4298 146.579 24.4539 145.096 24.4539C143.604 24.4539 142.71 23.4443 142.71 21.7665C142.71 20.1033 143.612 19.0864 145.096 19.0864Z" fill="white"/>
<path d="M160.655 25.8775C163.262 25.8775 164.86 24.3304 164.86 21.7665C164.86 19.2172 163.254 17.6628 160.655 17.6628C158.049 17.6628 156.442 19.2172 156.442 21.7665C156.442 24.3304 158.04 25.8775 160.655 25.8775ZM160.655 24.4902C159.122 24.4902 158.262 23.4952 158.262 21.7665C158.262 20.0524 159.122 19.0501 160.655 19.0501C162.18 19.0501 163.049 20.0524 163.049 21.7665C163.049 23.4879 162.18 24.4902 160.655 24.4902Z" fill="white"/>
<path d="M167.193 25.725H168.955V21.0983C168.955 19.8636 169.783 19.0937 171.087 19.0937C172.39 19.0937 173.013 19.7256 173.013 20.9966V25.725H174.775V20.6044C174.775 18.7233 173.677 17.6628 171.685 17.6628C170.341 17.6628 169.456 18.1931 169.021 19.0719H168.89V17.8154H167.193V25.725Z" fill="white"/>
<path d="M182.892 15.847V17.8517H181.474V19.1663H182.892V23.6332C182.892 25.1584 183.671 25.7686 185.63 25.7686C185.974 25.7686 186.302 25.7322 186.589 25.6887V24.3885C186.343 24.4103 186.187 24.4249 185.917 24.4249C185.04 24.4249 184.654 24.0617 184.654 23.2337V19.1663H186.589V17.8517H184.654V15.847H182.892Z" fill="white"/>
<path d="M188.955 25.725H190.717V21.1056C190.717 19.9072 191.52 19.101 192.963 19.101C194.209 19.101 194.873 19.7401 194.873 21.0039V25.725H196.635V20.619C196.635 18.7378 195.463 17.6701 193.561 17.6701C192.217 17.6701 191.274 18.2003 190.84 19.0864H190.701V14.7285H188.955V25.725Z" fill="white"/>
<path d="M202.993 18.992C204.296 18.992 205.149 19.7982 205.19 21.0402H200.681C200.78 19.8055 201.689 18.992 202.993 18.992ZM205.181 23.5896C204.854 24.207 204.124 24.5483 203.058 24.5483C201.648 24.5483 200.739 23.6695 200.681 22.2822V22.1951H206.985V21.6503C206.985 19.1663 205.485 17.6628 203.001 17.6628C200.485 17.6628 198.886 19.268 198.886 21.7956C198.886 24.3232 200.452 25.8775 203.009 25.8775C205.05 25.8775 206.477 25.0059 206.878 23.5896H205.181Z" fill="white"/>
<path d="M48.9188 35.5264C48.9616 32.5846 50.7445 29.8011 53.573 28.2603C51.7886 26.0022 48.7999 24.5705 45.6905 24.4843C42.374 24.1759 39.1588 26.2428 37.4687 26.2428C35.746 26.2428 33.1439 24.5149 30.3419 24.566C26.6897 24.6706 23.2848 26.5105 21.5079 29.3398C17.6883 35.1995 20.5374 43.8114 24.1963 48.5479C26.0269 50.8673 28.1664 53.4581 30.9659 53.3662C33.7053 53.2655 34.7284 51.8184 38.0352 51.8184C41.3112 51.8184 42.2711 53.3662 45.1274 53.3078C48.0669 53.2655 49.919 50.9781 51.6854 48.6368C53.0007 46.9842 54.0128 45.1577 54.6843 43.2249C51.2298 41.9303 48.9228 38.8499 48.9188 35.5264Z" fill="white"/>
<path d="M43.5238 21.3693C45.1265 19.6645 45.9161 17.4731 45.7249 15.2607C43.2763 15.4886 41.0144 16.5256 39.39 18.1651C37.8015 19.7669 36.9748 21.9196 37.1311 24.0475C39.5807 24.0698 41.9888 23.061 43.5238 21.3693Z" fill="white"/>
<path d="M4.32122 69.4672L3.98445 70.2802L4.32122 69.4672ZM0.532843 65.6788L-0.280171 66.0155L0.532843 65.6788ZM236.467 65.6788L235.654 65.342L236.467 65.6788ZM232.679 69.4672L233.016 70.2802L232.679 69.4672ZM232.679 0.532843L233.016 -0.280171L232.679 0.532843ZM236.467 4.32122L235.654 4.65798L236.467 4.32122ZM10.5 0.88H226.5V-0.88H10.5V0.88ZM236.12 10.5V59.5H237.88V10.5H236.12ZM226.5 69.12H10.5V70.88H226.5V69.12ZM0.88 59.5V10.5H-0.88V59.5H0.88ZM10.5 69.12C8.85716 69.12 7.66911 69.1195 6.72981 69.0554C5.79842 68.9919 5.17608 68.8687 4.65798 68.6541L3.98445 70.2802C4.75275 70.5984 5.589 70.7417 6.61001 70.8114C7.6231 70.8805 8.88124 70.88 10.5 70.88V69.12ZM-0.88 59.5C-0.88 61.1188 -0.880477 62.3769 -0.811353 63.39C-0.741691 64.411 -0.59841 65.2472 -0.280171 66.0155L1.34586 65.342C1.13125 64.8239 1.00811 64.2016 0.944564 63.2702C0.880477 62.3309 0.88 61.1428 0.88 59.5H-0.88ZM4.65798 68.6541C3.15841 68.033 1.967 66.8416 1.34586 65.342L-0.280171 66.0155C0.519602 67.9464 2.05363 69.4804 3.98445 70.2802L4.65798 68.6541ZM236.12 59.5C236.12 61.1428 236.12 62.3309 236.055 63.2702C235.992 64.2016 235.869 64.8239 235.654 65.342L237.28 66.0155C237.598 65.2472 237.742 64.411 237.811 63.39C237.88 62.3769 237.88 61.1188 237.88 59.5H236.12ZM226.5 70.88C228.119 70.88 229.377 70.8805 230.39 70.8114C231.411 70.7417 232.247 70.5984 233.016 70.2802L232.342 68.6541C231.824 68.8687 231.202 68.9919 230.27 69.0554C229.331 69.1195 228.143 69.12 226.5 69.12V70.88ZM235.654 65.342C235.033 66.8416 233.842 68.033 232.342 68.6541L233.016 70.2802C234.946 69.4804 236.48 67.9464 237.28 66.0155L235.654 65.342ZM226.5 0.88C228.143 0.88 229.331 0.880477 230.27 0.944564C231.202 1.00811 231.824 1.13125 232.342 1.34586L233.016 -0.280171C232.247 -0.59841 231.411 -0.741691 230.39 -0.811353C229.377 -0.880477 228.119 -0.88 226.5 -0.88V0.88ZM237.88 10.5C237.88 8.88124 237.88 7.62311 237.811 6.61001C237.742 5.589 237.598 4.75275 237.28 3.98445L235.654 4.65798C235.869 5.17608 235.992 5.79842 236.055 6.72981C236.12 7.66911 236.12 8.85716 236.12 10.5H237.88ZM232.342 1.34586C233.842 1.967 235.033 3.15841 235.654 4.65798L237.28 3.98445C236.48 2.05363 234.946 0.519602 233.016 -0.280171L232.342 1.34586ZM10.5 -0.88C8.88124 -0.88 7.62311 -0.880477 6.61001 -0.811353C5.589 -0.741691 4.75275 -0.59841 3.98445 -0.280171L4.65798 1.34586C5.17608 1.13125 5.79842 1.00811 6.72981 0.944564C7.66911 0.880477 8.85716 0.88 10.5 0.88V-0.88ZM0.88 10.5C0.88 8.85716 0.880477 7.66911 0.944564 6.72981C1.00811 5.79842 1.13125 5.17608 1.34586 4.65798L-0.280171 3.98445C-0.59841 4.75275 -0.741691 5.589 -0.811353 6.61001C-0.880477 7.62311 -0.88 8.88124 -0.88 10.5H0.88ZM3.98445 -0.280171C2.05363 0.519602 0.519602 2.05363 -0.280171 3.98445L1.34586 4.65798C1.967 3.15841 3.15841 1.967 4.65798 1.34586L3.98445 -0.280171Z" fill="#A6A6A6"/>
</svg>
