<svg width="60" height="60" viewBox="0 0 60 60" fill="none" xmlns="http://www.w3.org/2000/svg">
<path d="M30 60C46.567 60 60 46.567 60 30C60 13.433 46.567 0 30 0C13.433 0 0 13.433 0 30C0 46.567 13.433 60 30 60ZM23.0357 38.779C23.0357 38.096 23.3638 37.4464 23.9196 37.0446L33.6563 30L23.9196 22.9554C23.3638 22.5536 23.0357 21.9107 23.0357 21.221V18.0804C23.0357 17.6451 23.5313 17.3906 23.8862 17.6451L40.3594 29.5647C40.4278 29.6141 40.4836 29.6789 40.522 29.754C40.5605 29.8291 40.5805 29.9123 40.5805 29.9967C40.5805 30.081 40.5605 30.1642 40.522 30.2393C40.4836 30.3144 40.4278 30.3793 40.3594 30.4286L23.8862 42.3482C23.8061 42.4063 23.7115 42.4412 23.6129 42.4488C23.5142 42.4565 23.4154 42.4367 23.3274 42.3916C23.2393 42.3465 23.1654 42.2779 23.1139 42.1934C23.0625 42.109 23.0354 42.0119 23.0357 41.9129V38.779Z" fill="#52585C"/>
</svg>
