<svg width="60" height="60" viewBox="0 0 60 60" fill="none" xmlns="http://www.w3.org/2000/svg">
<path d="M30 0C13.433 0 0 13.433 0 30C0 46.567 13.433 60 30 60C46.567 60 60 46.567 60 30C60 13.433 46.567 0 30 0ZM36.9643 21.221C36.9643 21.904 36.6362 22.5536 36.0804 22.9554L26.3437 30L36.0804 37.0446C36.6362 37.4464 36.9643 38.0893 36.9643 38.779V41.9196C36.9643 42.3549 36.4687 42.6094 36.1138 42.3549L19.6406 30.4353C19.5722 30.3859 19.5164 30.3211 19.478 30.246C19.4395 30.1709 19.4195 30.0877 19.4195 30.0033C19.4195 29.919 19.4395 29.8358 19.478 29.7607C19.5164 29.6856 19.5722 29.6207 19.6406 29.5714L36.1138 17.6518C36.1939 17.5937 36.2885 17.5588 36.3871 17.5512C36.4858 17.5435 36.5846 17.5633 36.6726 17.6084C36.7607 17.6535 36.8346 17.7221 36.8861 17.8066C36.9375 17.891 36.9646 17.9881 36.9643 18.0871V21.221Z" fill="#52585C"/>
</svg>
