<svg width="66" height="124" viewBox="0 0 66 124" fill="none" xmlns="http://www.w3.org/2000/svg">
<path d="M33 53.3238L1.20937 28.544C0.72187 28.1612 0 28.5067 0 29.1322V36.3496C0 36.8071 0.21563 37.2459 0.571877 37.526L31.1531 61.3628C31.6813 61.7756 32.3333 62 33.0047 62C33.6761 62 34.3281 61.7756 34.8562 61.3628L65.4281 37.526C65.7938 37.2459 66 36.8071 66 36.3496V29.1322C66 28.5067 65.2781 28.1612 64.7906 28.544L33 53.3238ZM33 24.94L1.20937 0.160233C0.72187 -0.222572 0 0.122887 0 0.748451V7.96577C0 8.42328 0.21563 8.86211 0.571877 9.14221L31.1531 32.979C31.6813 33.3918 32.3333 33.6162 33.0047 33.6162C33.6761 33.6162 34.3281 33.3918 34.8562 32.979L65.4281 9.14221C65.7938 8.86211 66 8.42328 66 7.96577V0.748451C66 0.122887 65.2781 -0.222572 64.7906 0.160233L33 24.94Z" fill="url(#paint0_linear)"/>
<path d="M33 115.324L1.20937 90.544C0.72187 90.1612 0 90.5067 0 91.1323V98.3496C0 98.8071 0.21563 99.2459 0.571877 99.526L31.1531 123.363C31.6813 123.776 32.3333 124 33.0047 124C33.6761 124 34.3281 123.776 34.8562 123.363L65.4281 99.526C65.7938 99.2459 66 98.8071 66 98.3496V91.1323C66 90.5067 65.2781 90.1612 64.7906 90.544L33 115.324ZM33 86.94L1.20937 62.1602C0.72187 61.7774 0 62.1229 0 62.7485V69.9658C0 70.4233 0.21563 70.8621 0.571877 71.1422L31.1531 94.979C31.6813 95.3918 32.3333 95.6162 33.0047 95.6162C33.6761 95.6162 34.3281 95.3918 34.8562 94.979L65.4281 71.1422C65.7938 70.8621 66 70.4233 66 69.9658V62.7485C66 62.1229 65.2781 61.7774 64.7906 62.1602L33 86.94Z" fill="url(#paint1_linear)"/>
<defs>
<linearGradient id="paint0_linear" x1="33" y1="124" x2="33" y2="0" gradientUnits="userSpaceOnUse">
<stop stop-color="#981564"/>
<stop offset="1" stop-color="#981564" stop-opacity="0"/>
</linearGradient>
<linearGradient id="paint1_linear" x1="33" y1="124" x2="33" y2="0" gradientUnits="userSpaceOnUse">
<stop stop-color="#981564"/>
<stop offset="1" stop-color="#981564" stop-opacity="0"/>
</linearGradient>
</defs>
</svg>
