<svg width="45" height="43" viewBox="0 0 45 43" fill="none" xmlns="http://www.w3.org/2000/svg">
<path fill-rule="evenodd" clip-rule="evenodd" d="M5.03226 32.7798C2.24515 32.7798 0 35.0219 0 37.8051C0 40.5883 2.24515 42.8303 5.03226 42.8303H44.9032V5.72101H5.80643V32.7798H5.03226ZM0 33.5529C1.04514 32.316 2.55481 31.4655 4.25806 31.2723V0C1.85806 0.3479 0 2.4353 0 4.94788V33.5529ZM37.9047 8.7124H33.2172V34.5522L35.561 39.146L37.9047 34.5522V8.7124ZM36.3422 10.2437V14.4546H34.7797V10.2437H36.3422ZM35.561 35.7007L34.7797 34.1694V15.9858H36.3422V34.1694L35.561 35.7007ZM14.0766 28.6187V27.0874H17.475L18.3735 22.0343C17.1625 21.1538 16.4203 19.7757 16.4203 18.2827C16.4203 16.0241 18.1 14.1483 20.3266 13.7655V8.7124H21.8891V13.7655C24.1157 14.11 25.7953 16.0241 25.7953 18.2827C25.7953 19.7757 25.0532 21.1921 23.8422 22.0343L24.7407 27.0874H28.1391V28.6187H25.0141L26.9672 39.2225L25.4438 39.4905L23.4516 28.6187H18.7641L16.7719 39.4905L15.2485 39.2225L17.2016 28.6187H14.0766ZM17.9828 18.2827C17.9828 19.3929 18.6078 20.4265 19.6235 20.9624L20.0922 21.2303L19.0375 27.0874H23.1782L22.0844 21.2303L22.5922 20.9624C23.6078 20.4265 24.2328 19.3929 24.2328 18.2827C24.2328 16.5983 22.8266 15.2202 21.1078 15.2202C19.3891 15.2202 17.9828 16.5983 17.9828 18.2827Z" fill="#D8D8D8"/>
</svg>
