<svg width="45" height="43" viewBox="0 0 45 43" fill="none" xmlns="http://www.w3.org/2000/svg">
<path fill-rule="evenodd" clip-rule="evenodd" d="M0 37.8051C0 35.0219 2.24512 32.7798 5.03223 32.7798H5.8064V5.72101H44.9032V13H6V14H44.9032V42.8303H5.03223C2.24512 42.8303 0 40.5883 0 37.8051ZM44.9032 14H45V13H44.9032V14ZM4.25806 31.2723C2.55481 31.4655 1.04517 32.316 0 33.5529V4.94788C0 2.4353 1.85803 0.3479 4.25806 0V31.2723ZM9 10H14V8H9V10ZM14 18H9V37H14V18ZM31 17L30.4226 18L24.6491 28L24.0718 29H25.2265H36.7735H37.9282L37.3509 28L31.5774 18L31 17ZM25.5 36C29.0899 36 32 33.0899 32 29.5C32 25.9101 29.0899 23 25.5 23C21.9101 23 19 25.9101 19 29.5C19 33.0899 21.9101 36 25.5 36ZM25.5 37C29.6421 37 33 33.6421 33 29.5C33 25.3579 29.6421 22 25.5 22C21.3579 22 18 25.3579 18 29.5C18 33.6421 21.3579 37 25.5 37Z" fill="#D8D8D8"/>
</svg>
