<svg width="45" height="43" viewBox="0 0 45 43" fill="none" xmlns="http://www.w3.org/2000/svg">
<path fill-rule="evenodd" clip-rule="evenodd" d="M5.03223 32.7798C2.24512 32.7798 0 35.0219 0 37.8051C0 40.5883 2.24512 42.8303 5.03223 42.8303H44.9032V14H45V13H44.9032V5.72101H5.8064V32.7798H5.03223ZM44.9032 13H6V14H44.9032V13ZM0 33.5529C1.04517 32.316 2.55481 31.4655 4.25806 31.2723V0C1.85803 0.3479 0 2.4353 0 4.94788V33.5529ZM14 10H9V8H14V10ZM14 16H9V18H14V16ZM16 16H28V18H16V16ZM18.6 20.2188H18.3343L18.1856 20.439L14.5856 25.7723L14.3741 26.0856L14.6179 26.3745L23.6179 37.0412L24 37.4941L24.3821 37.0412L33.3821 26.3745L33.6259 26.0856L33.4144 25.7723L29.8144 20.439L29.6657 20.2188H29.4H24H23.1562H22.8928H18.6ZM18.8657 21.2188H22.2073L19.2366 25.5521H15.9407L18.8657 21.2188ZM16.0761 26.5521H19.1797L22.9041 34.6445L16.0761 26.5521ZM31.9239 26.5521L25.0959 34.6445L28.8203 26.5521H31.9239ZM32.0593 25.5521H28.7657L25.8407 21.2188H29.1343L32.0593 25.5521ZM27.5593 25.5521L24.6343 21.2188H24.5V25.5521H27.5593ZM20.449 25.5521L23.4197 21.2188H23.5V25.5521H20.449ZM20.2805 26.5521H23.5V33.5475L20.2805 26.5521ZM27.7195 26.5521H24.5V33.5475L27.7195 26.5521Z" fill="#D8D8D8"/>
</svg>
