<svg width="15" height="12" viewBox="0 0 15 12" fill="none" xmlns="http://www.w3.org/2000/svg">
<path fill-rule="evenodd" clip-rule="evenodd" d="M0.333708 1.62354C0.120452 2.0358 0 2.50383 0 3V8.4C0 10.0569 1.34315 11.4 3 11.4H12C13.6569 11.4 15 10.0569 15 8.4V3C15 2.50403 14.8796 2.03618 14.6666 1.62404L7.96745 6.40693L7.68424 6.60912L7.39626 6.41379L0.333708 1.62354ZM0.435073 1.44315L0.601956 1.19711C0.542417 1.27618 0.486698 1.35828 0.435073 1.44315ZM0.935463 0.823369L7.6696 5.39087L14.0656 0.824381C13.5277 0.313486 12.8004 0 12 0H3C2.20008 0 1.47329 0.313072 0.935463 0.823369ZM14.396 1.19439L14.4888 1.32431C14.459 1.28016 14.428 1.23683 14.396 1.19439Z" fill="white"/>
</svg>
