<svg width="33" height="21" viewBox="0 0 33 21" fill="none" xmlns="http://www.w3.org/2000/svg">
<path d="M0.999998 0C0.447714 0 0 0.447715 0 1V14.1237C0 15.1812 1.42735 15.515 1.8963 14.5672L3.15322 12.0267C3.32185 11.6858 3.66923 11.4701 4.04952 11.4701H13.5714C14.1237 11.4701 14.5714 11.0224 14.5714 10.4701V5.6C14.5714 5.04771 15.0191 4.6 15.5714 4.6H19.1429C19.6951 4.6 20.1429 4.15228 20.1429 3.6V0.999999C20.1429 0.447715 19.6951 0 19.1429 0H0.999998ZM16.3214 5.73506C15.7691 5.73506 15.3214 6.18278 15.3214 6.73506V16.2052C15.3214 16.7575 15.7691 17.2052 16.3214 17.2052H28.903C29.2516 17.2052 29.5751 17.3867 29.7566 17.6843L31.1464 19.962C31.6726 20.8244 33 20.4515 33 19.4411V6.73506C33 6.18278 32.5523 5.73506 32 5.73506H16.3214Z" fill="#D8D8D8"/>
</svg>
