<svg width="20" height="24" viewBox="0 0 20 24" fill="none" xmlns="http://www.w3.org/2000/svg">
<path d="M0 22.5V1.5C0 1.20833 0.0677083 0.958333 0.203125 0.75C0.338542 0.53125 0.515625 0.348958 0.734375 0.203125C0.984375 0.0677083 1.23958 0 1.5 0H11.5C11.7917 0 12.0938 0.0520833 12.4062 0.15625C12.7292 0.25 13.0365 0.375 13.3281 0.53125C13.599 0.677083 13.8438 0.854167 14.0625 1.0625C14.4271 1.42708 14.9375 1.9401 15.5938 2.60156C16.25 3.26302 16.849 3.86458 17.3906 4.40625C17.9323 4.94792 18.4479 5.45833 18.9375 5.9375C19.1458 6.15625 19.3229 6.40104 19.4688 6.67188C19.625 6.96354 19.75 7.27083 19.8438 7.59375C19.9479 7.90625 20 8.20833 20 8.5V22.5C20 22.7604 19.9323 23.0156 19.7969 23.2656C19.651 23.4844 19.4688 23.6615 19.25 23.7969C19.0417 23.9323 18.7917 24 18.5 24H1.5C1.21875 24 0.963542 23.9323 0.734375 23.7969C0.515625 23.6615 0.338542 23.4844 0.203125 23.2656C0.0677083 23.0365 0 22.7812 0 22.5ZM12 6.5C12 6.35417 11.9531 6.23438 11.8594 6.14062C11.7656 6.04688 11.6458 6 11.5 6H8.5C8.35417 6 8.23438 6.04688 8.14062 6.14062C8.04688 6.23438 8 6.35417 8 6.5V13H4.5C4.40625 13 4.31771 13.026 4.23438 13.0781C4.15104 13.151 4.08854 13.224 4.04688 13.2969C4.01562 13.401 4.00521 13.4948 4.01562 13.5781C4.02604 13.6719 4.06771 13.7604 4.14062 13.8438L9.625 19.8438C9.65625 19.875 9.71354 19.9115 9.79688 19.9531L10 20C10.0729 20 10.1406 19.9844 10.2031 19.9531C10.2656 19.9219 10.3177 19.8854 10.3594 19.8438L15.875 13.8438C15.9479 13.7604 15.9896 13.6719 16 13.5781C16 13.4531 15.9844 13.3594 15.9531 13.2969C15.9219 13.2031 15.8646 13.1302 15.7812 13.0781C15.6771 13.026 15.5833 13 15.5 13H12V6.5Z" fill="#D8D8D8"/>
</svg>
