<svg width="25" height="25" viewBox="0 0 25 25" fill="none" xmlns="http://www.w3.org/2000/svg">
<path d="M25 22.2225L17.8423 15.0648C19.1656 13.0538 19.6956 10.6232 19.3297 8.24386C18.9638 5.86447 17.7281 3.70547 15.8618 2.18486C13.9955 0.664246 11.6314 -0.109801 9.22713 0.0125785C6.82289 0.134958 4.54957 1.14506 2.84732 2.84732C1.14506 4.54957 0.134958 6.82289 0.0125785 9.22713C-0.109801 11.6314 0.664246 13.9955 2.18486 15.8618C3.70547 17.7281 5.86447 18.9638 8.24386 19.3297C10.6232 19.6956 13.0538 19.1656 15.0648 17.8423L22.2225 25L25 22.2225ZM2.77986 9.72365C2.77986 5.89485 5.89485 2.77986 9.72365 2.77986C13.5525 2.77986 16.6674 5.89485 16.6674 9.72365C16.6674 13.5525 13.5525 16.6674 9.72365 16.6674C5.89485 16.6674 2.77986 13.5525 2.77986 9.72365Z" fill="#D8D8D8"/>
</svg>
