<svg width="26" height="27" viewBox="0 0 26 27" fill="none" xmlns="http://www.w3.org/2000/svg">
<path d="M16.4929 0.00223222C16.2929 0.0102322 16.0999 0.0462322 15.8989 0.0962322L2.30491 3.40823C0.69691 3.80223 -0.30909 5.42423 0.0859105 7.03323L1.99191 14.8152C2.10741 15.2788 2.33229 15.7079 2.64773 16.0666C2.96316 16.4254 3.35997 16.7034 3.80491 16.8772V15.0022C3.80491 12.2452 6.04791 10.0022 8.80491 10.0022H21.3989L19.5239 2.28323C19.3581 1.61225 18.9659 1.01898 18.4136 0.603464C17.8613 0.187946 17.1826 -0.0244002 16.4919 0.00223222H16.4929ZM17.7109 4.31523L18.5239 7.72123L15.1489 8.53323L14.3049 5.15823L17.7109 4.31523ZM8.80491 12.0022C7.14891 12.0022 5.80491 13.3462 5.80491 15.0022V23.0022C5.80491 24.6582 7.14891 26.0022 8.80491 26.0022H22.8049C24.4609 26.0022 25.8049 24.6582 25.8049 23.0022V15.0022C25.8049 13.3462 24.4609 12.0022 22.8049 12.0022H8.80491ZM8.80491 13.5962H22.8049C23.5759 13.5962 24.2109 14.2312 24.2109 15.0022V16.0022H7.39891V15.0022C7.39891 14.2312 8.03391 13.5962 8.80491 13.5962ZM7.39891 19.0022H24.2109V23.0022C24.2109 23.7732 23.5759 24.4082 22.8049 24.4082H8.80491C8.43266 24.4061 8.07626 24.2573 7.81304 23.9941C7.54982 23.7309 7.40101 23.3745 7.39891 23.0022V19.0022Z" fill="#D8D8D8"/>
</svg>
