<svg width="24" height="24" viewBox="0 0 24 24" fill="none" xmlns="http://www.w3.org/2000/svg">
<path d="M2.4 21.6H4.8V9.6C4.8 9.28174 4.92643 8.97652 5.15147 8.75147C5.37652 8.52643 5.68174 8.4 6 8.4H20.4V6C20.4 5.68174 20.2736 5.37652 20.0485 5.15147C19.8235 4.92643 19.5183 4.8 19.2 4.8H15.5388C15.2364 2.1072 12.972 0 10.2 0C7.428 0 5.1636 2.1072 4.8612 4.8H1.2C0.88174 4.8 0.576515 4.92643 0.351472 5.15147C0.126428 5.37652 0 5.68174 0 6V19.2C0 19.8365 0.252856 20.447 0.702944 20.8971C1.15303 21.3471 1.76348 21.6 2.4 21.6ZM10.2 2.4C11.6484 2.4 12.8616 3.432 13.14 4.8H7.26C7.5384 3.432 8.7516 2.4 10.2 2.4Z" fill="#D8D8D8"/>
<path d="M22.8 10.8H8.4C8.08174 10.8 7.77652 10.9264 7.55147 11.1515C7.32643 11.3765 7.2 11.6817 7.2 12V21.6C7.2 22.2365 7.45286 22.847 7.90294 23.2971C8.35303 23.7471 8.96348 24 9.6 24H21.6C22.2365 24 22.847 23.7471 23.2971 23.2971C23.7471 22.847 24 22.2365 24 21.6V12C24 11.6817 23.8736 11.3765 23.6485 11.1515C23.4235 10.9264 23.1183 10.8 22.8 10.8ZM15.6 19.2C12.2916 19.2 9.6 16.5084 9.6 13.2H12C12 15.1848 13.6152 16.8 15.6 16.8C17.5848 16.8 19.2 15.1848 19.2 13.2H21.6C21.6 16.5084 18.9084 19.2 15.6 19.2Z" fill="#D8D8D8"/>
</svg>
