<svg width="25" height="30" viewBox="0 0 25 30" fill="none" xmlns="http://www.w3.org/2000/svg">
<path fill-rule="evenodd" clip-rule="evenodd" d="M24.4896 13.716L24.4796 5C24.4796 4.58 24.2142 4.204 23.8181 4.06L12.7599 0.06C12.5388 -0.02 12.2955 -0.02 12.0723 0.06L1.01418 4.06C0.61608 4.204 0.3527 4.58 0.3527 5L0.34265 13.716C0.2763 20.854 0.226029 26.01 12.0985 29.948C12.201 29.982 12.3096 30 12.4161 30C12.5227 30 12.6313 29.982 12.7338 29.95C24.6043 26.012 24.558 20.856 24.4896 13.716ZM12.4161 6C14.6338 6 16.4373 7.794 16.4373 10C16.4373 12.206 14.6338 14 12.4161 14C10.1985 14 8.39503 12.206 8.39503 10C8.39503 7.794 10.1985 6 12.4161 6ZM17.4426 22H7.38973C6.8348 22 6.38443 21.552 6.38443 21C6.38443 18.242 8.64033 16 11.4108 16H13.4214C16.194 16 18.4479 18.242 18.4479 21C18.4479 21.552 17.9975 22 17.4426 22Z" fill="#52585C"/>
</svg>
