<svg width="18" height="30" viewBox="0 0 18 30" fill="none" xmlns="http://www.w3.org/2000/svg">
<path fill-rule="evenodd" clip-rule="evenodd" d="M13.8 0H4.2C1.88398 0 0 1.96248 0 4.37502V5.625V24.375V25.625C0 28.0375 1.88398 30 4.2 30H13.8C16.116 30 18 28.0375 18 25.625V24.375V5.625V4.37502C18 1.96248 16.116 0 13.8 0ZM13.824 2.50002H13.836C14.166 2.50002 14.436 2.78004 14.436 3.12504C14.436 3.47004 14.1672 3.75 13.836 3.75C13.5048 3.75 13.23 3.46998 13.23 3.12498C13.23 2.77998 13.4928 2.50002 13.824 2.50002ZM7.8 2.50002H10.2C10.5312 2.50002 10.8001 2.78004 10.8001 3.12504C10.8001 3.47004 10.5312 3.75 10.2 3.75H7.8C7.4688 3.75 7.2 3.46998 7.2 3.12498C7.2 2.77998 7.4688 2.50002 7.8 2.50002ZM9 27.5C8.3376 27.5 7.8 26.9387 7.8 26.25C7.8 25.5612 8.3376 25 9 25C9.6624 25 10.2 25.5613 10.2 26.25C10.2 26.9388 9.6624 27.5 9 27.5ZM16.8 22.5H1.19998V6.25002H16.8V22.5Z" fill="#52585C"/>
</svg>
