<svg width="30" height="30" viewBox="0 0 30 30" fill="none" xmlns="http://www.w3.org/2000/svg">
<path fill-rule="evenodd" clip-rule="evenodd" d="M29.7037 10.2422C30.0988 10.6373 30.0988 11.2777 29.7037 11.6727L21.6753 19.7011L10.2989 8.32461L18.3273 0.296212C18.7223 -0.0987374 19.3628 -0.0987374 19.7578 0.296212L20.7914 1.32968C21.0887 1.62705 21.1711 2.07723 20.9982 2.46058L20.7256 3.06545L21.295 2.79133C21.6821 2.60475 22.145 2.68344 22.449 2.98743L25.7417 6.28014C26.0835 6.62182 26.1357 7.15763 25.8664 7.55892L23.7103 10.7722L26.902 8.6029C27.3035 8.33007 27.8425 8.38098 28.1858 8.72428L29.7037 10.2422ZM8.80396 9.81958L6.47984 12.1437C6.29015 12.3334 6.18354 12.5906 6.18354 12.8589C6.18354 13.1271 6.29009 13.3844 6.47984 13.5741L8.68447 15.7787C9.10922 16.2034 9.31523 16.7896 9.24968 17.3869C9.18421 17.9837 8.85568 18.5114 8.34838 18.8348C1.87031 22.9643 1.26646 23.5682 1.06807 23.7666C-0.356024 25.1907 -0.356024 27.5078 1.06807 28.9319C2.49359 30.3574 4.81083 30.3546 6.23338 28.9319C6.4319 28.7335 7.03595 28.1293 11.1651 21.6516C11.4877 21.1455 12.0152 20.8178 12.6123 20.7521C13.2113 20.6868 13.7974 20.8918 14.2212 21.3155L16.4258 23.5201C16.8208 23.915 17.4613 23.915 17.8562 23.5201L20.1804 21.1959L8.80396 9.81958ZM4.72364 27.2982C4.1653 27.8565 3.26009 27.8565 2.70182 27.2982C2.14348 26.7398 2.14348 25.8346 2.70182 25.2764C3.26016 24.718 4.16537 24.718 4.72364 25.2764C5.28198 25.8346 5.28198 26.7398 4.72364 27.2982Z" fill="white"/>
</svg>
