<svg width="30" height="30" viewBox="0 0 30 30" fill="none" xmlns="http://www.w3.org/2000/svg">
<path fill-rule="evenodd" clip-rule="evenodd" d="M27.9888 7.47055C26.6474 5.17253 24.8279 3.35304 22.5298 2.01173C20.2313 0.670484 17.7222 0 15.0005 0C12.2791 0 9.76916 0.670484 7.47106 2.01173C5.17283 3.35283 3.35332 5.17232 2.01194 7.47055C0.670487 9.76891 0 12.2788 0 15C0 17.7213 0.670692 20.2308 2.01173 22.5293C3.35305 24.8273 5.17255 26.6468 7.47079 27.9883C9.76916 29.3294 12.2789 30 15.0002 30C17.7216 30 20.2315 29.3294 22.5298 27.9883C24.8279 26.6473 26.6473 24.8273 27.9885 22.5293C29.3296 20.231 30 17.7212 30 15C30.0001 12.2785 29.3296 9.76857 27.9888 7.47055ZM23.7505 16.25C23.7505 16.5885 23.6266 16.8818 23.3792 17.1288C23.1316 17.3761 22.8387 17.5002 22.5003 17.5002H17.5002V22.4998C17.5002 22.8383 17.3762 23.1314 17.1289 23.3792C16.8817 23.6263 16.5886 23.75 16.25 23.75H13.7501C13.4116 23.75 13.1186 23.6263 12.8712 23.3792C12.6238 23.1315 12.5 22.8384 12.5 22.4998V17.5002H7.5C7.16151 17.5002 6.86864 17.3761 6.62114 17.1288C6.37376 16.8819 6.25008 16.5885 6.25008 16.25V13.7498C6.25008 13.4113 6.37383 13.1183 6.62114 12.871C6.86858 12.6235 7.16144 12.4998 7.5 12.4998H12.5002V7.49976C12.5002 7.1612 12.624 6.86841 12.8714 6.6209C13.1188 6.37353 13.4117 6.24985 13.7503 6.24985H16.2505C16.589 6.24985 16.8821 6.3736 17.1293 6.6209C17.3766 6.86834 17.5007 7.1612 17.5007 7.49976V12.4998H22.5003C22.8388 12.4998 23.1319 12.6235 23.3792 12.871C23.6266 13.1183 23.7505 13.4113 23.7505 13.7498V16.25Z" fill="white"/>
</svg>
