<svg width="65" height="80" viewBox="0 0 65 80" fill="none" xmlns="http://www.w3.org/2000/svg">
<path d="M54.2897 42.5115C54.1874 32.3772 62.5334 27.517 62.9057 27.2713C58.2145 20.3959 50.9078 19.4537 48.3078 19.348C42.0963 18.7137 36.1765 23.0174 33.0242 23.0174C29.8782 23.0174 25.0102 19.4413 19.8567 19.5315C13.0775 19.6341 6.82882 23.4838 3.34146 29.5661C-3.69848 41.8056 1.54193 59.944 8.40178 69.876C11.7558 74.7301 15.7551 80.1937 21.0016 79.9947C26.0589 79.7957 27.967 76.7141 34.0791 76.7141C40.1914 76.7141 41.9102 79.9947 47.2591 79.8889C52.6981 79.7894 56.1451 74.9415 59.4711 70.0657C63.3183 64.4249 64.9038 58.9644 65 58.6877C64.882 58.6348 54.4014 54.6079 54.2928 42.5115H54.2897ZM44.2372 12.7743C47.0202 9.38793 48.9036 4.68312 48.3947 0C44.3799 0.164884 39.5181 2.67426 36.6357 6.05752C34.0543 9.05836 31.7925 13.8378 32.4006 18.4369C36.8808 18.7852 41.4479 16.1544 44.2403 12.7743H44.2372Z" fill="url(#paint0_linear)"/>
<defs>
<linearGradient id="paint0_linear" x1="1.43382" y1="4.24778" x2="73.9487" y2="14.0938" gradientUnits="userSpaceOnUse">
<stop stop-color="#981563"/>
<stop offset="0.505208" stop-color="#435A94"/>
<stop offset="0.973958" stop-color="#159890"/>
</linearGradient>
</defs>
</svg>
