<svg width="35" height="40" viewBox="0 0 35 40" fill="none" xmlns="http://www.w3.org/2000/svg">
<path fill-rule="evenodd" clip-rule="evenodd" d="M18.7498 3.28999C20.1952 1.51249 22.6756 0.1475 24.7977 0C25.1534 2.42999 24.1707 4.80998 22.8721 6.49248C21.4839 8.29997 19.0881 9.69747 16.7695 9.62497C16.3466 7.29747 17.4313 4.90248 18.7498 3.28999ZM25.5788 9.3625C28.2831 9.3625 31.1466 10.8525 33.1841 13.42C26.5043 17.1225 27.5865 26.7674 34.3359 29.3499C33.408 31.4299 32.9627 32.3574 31.766 34.1999C30.0967 36.7699 27.7457 39.9724 24.8275 39.9949C23.628 40.0076 22.841 39.6428 21.9924 39.2494C21.009 38.7935 19.9428 38.2992 18.0557 38.3099C16.179 38.3192 15.0957 38.8074 14.0988 39.2567C13.2284 39.6489 12.4237 40.0116 11.2142 39.9999C8.2985 39.9749 6.06941 37.0849 4.40009 34.5149C-0.264561 27.3324 -0.757141 18.9 2.12125 14.415C4.16872 11.23 7.3979 9.36751 10.4305 9.36751C12.0469 9.36751 13.3495 9.83685 14.5909 10.2841C15.7207 10.6912 16.7998 11.08 18.0184 11.08C19.146 11.08 20.073 10.7251 21.0842 10.3379C22.2974 9.87338 23.6318 9.3625 25.5788 9.3625Z" fill="#D8D8D8"/>
</svg>
