<svg width="99" height="100" viewBox="0 0 99 100" fill="none" xmlns="http://www.w3.org/2000/svg">
<path d="M55.6874 100H43.3124C40.425 100 37.1249 97.5 37.1249 92.5V83.75C37.1249 79.5833 35.0624 75.8333 31.7625 72.9167C24.3375 67.0833 20.625 58.75 20.625 49.5833C21.0374 33.75 33.8249 21.25 49.0875 20.8333C56.9249 20.8333 64.3499 23.75 69.7124 29.1667C75.075 34.5833 78.3749 42.0833 78.3749 50C78.3749 58.75 74.6624 67.0833 67.65 72.5C63.9375 75.4167 61.8749 80 61.8749 84.1667V93.75C61.8749 97.0833 58.9875 100 55.6874 100ZM49.4999 25C36.2999 25 25.1624 36.25 24.7499 49.5833C24.7499 57.5 28.05 65 34.2375 69.5834C38.7749 73.3334 41.2499 78.3333 41.2499 83.75V92.5C41.2499 93.3334 41.2499 95.8333 43.3124 95.8333H55.6874C56.9249 95.8333 57.75 95 57.75 93.75V84.1667C57.75 78.75 60.6374 72.9167 65.175 69.1667C70.9499 64.5833 74.2499 57.5 74.2499 50C74.2499 43.3333 71.7749 37.0833 66.8249 32.0833C62.2874 27.5 56.0999 25 49.4999 25Z" fill="#159890"/>
<path d="M59.8125 87.5H39.1875C37.95 87.5 37.125 86.6667 37.125 85.4167C37.125 84.1667 37.95 83.3333 39.1875 83.3333H59.8125C61.05 83.3333 61.875 84.1667 61.875 85.4167C61.875 86.6667 61.05 87.5 59.8125 87.5Z" fill="#159890"/>
<path d="M49.5001 12.5C48.2626 12.5 47.4375 11.6667 47.4375 10.4167V2.08333C47.4375 0.833333 48.2626 0 49.5001 0C50.7376 0 51.5626 0.833333 51.5626 2.08333V10.4167C51.5626 11.6667 50.7376 12.5 49.5001 12.5Z" fill="#159890"/>
<path d="M77.1375 24.1667C76.725 24.1667 75.9 24.1667 75.4875 23.75C74.6625 22.9167 74.6625 21.6667 75.4875 20.8333L81.2625 15C82.0875 14.1667 83.325 14.1667 84.15 15C84.975 15.8333 84.975 17.0833 84.15 17.9167L78.375 23.75C78.375 23.75 77.55 24.1667 77.1375 24.1667Z" fill="#159890"/>
<path d="M96.9375 52.0833H88.6875C87.45 52.0833 86.625 51.25 86.625 50C86.625 48.75 87.45 47.9167 88.6875 47.9167H96.9375C98.175 47.9167 99 48.75 99 50C99 51.25 98.175 52.0833 96.9375 52.0833Z" fill="#159890"/>
<path d="M82.9125 85.8334C82.5 85.8334 81.675 85.8333 81.2625 85.4167L75.4875 79.5834C74.6625 78.75 74.6625 77.5 75.4875 76.6667C76.3125 75.8334 77.55 75.8334 78.375 76.6667L84.15 82.5C84.975 83.3333 84.975 84.5834 84.15 85.4167C84.15 85.8333 83.7375 85.8334 82.9125 85.8334Z" fill="#159890"/>
<path d="M16.0875 85.8334C15.6751 85.8334 14.85 85.8333 14.4376 85.4167C13.6125 84.5834 13.6125 83.3333 14.4376 82.5L20.2125 76.6667C21.0375 75.8334 22.275 75.8334 23.1001 76.6667C23.925 77.5 23.925 78.75 23.1001 79.5834L17.325 85.4167C16.9126 85.8333 16.5 85.8334 16.0875 85.8334Z" fill="#159890"/>
<path d="M10.3125 52.0833H2.0625C0.825 52.0833 0 51.25 0 50C0 48.75 0.825 47.9167 2.0625 47.9167H10.3125C11.55 47.9167 12.375 48.75 12.375 50C12.375 51.25 11.55 52.0833 10.3125 52.0833Z" fill="#159890"/>
<path d="M21.8626 24.1667C21.45 24.1667 20.6251 24.1667 20.2125 23.75L14.4376 17.5C13.6125 16.6667 13.6125 15.4167 14.4376 14.5833C15.2625 13.75 16.5 13.75 17.325 14.5833L23.1001 20.4167C23.925 21.25 23.925 22.5 23.1001 23.3333C22.6875 23.75 22.275 24.1667 21.8626 24.1667Z" fill="#159890"/>
<path d="M66 52.0833C64.7625 52.0833 63.9376 51.25 63.9376 50C63.9376 42.0833 57.3375 35.4167 49.5001 35.4167C48.2626 35.4167 47.4375 34.5833 47.4375 33.3333C47.4375 32.0833 48.2626 31.25 49.5001 31.25C59.8125 31.25 68.0626 39.5833 68.0626 50C68.0626 51.25 67.2375 52.0833 66 52.0833Z" fill="#159890"/>
</svg>
