<svg width="34" height="34" viewBox="0 0 34 34" fill="none" xmlns="http://www.w3.org/2000/svg">
<rect y="-0.000183105" width="34" height="34" rx="6" fill="#159890"/>
<path d="M25.1088 24.9998C24.0113 24.9998 23.3237 24.9998 22.3518 24.9998C21.3798 24.9998 18 24.9998 18 24.9998V22.1269H22.3518C22.3518 22.1269 24.3088 22.1269 25.1287 22.1269C26.0411 22.1269 26.7155 21.9796 27.1519 21.6849C27.5883 21.3755 27.8065 20.9704 27.8065 20.4694C27.8065 20.1011 27.6742 19.7991 27.4098 19.5634C27.1585 19.3129 26.8279 19.114 26.418 18.9667C26.0213 18.8193 25.4791 18.6573 24.7915 18.4805C23.7336 18.2006 22.8674 17.9206 22.193 17.6407C21.5186 17.3608 20.9367 16.9114 20.4475 16.2926C19.9714 15.6739 19.7334 14.8488 19.7334 13.8175C19.7334 12.9188 19.9516 12.1085 20.388 11.3866C20.8243 10.6499 21.4789 10.068 22.3517 9.64072C23.2377 9.21346 24.3154 8.99983 25.5849 8.99983C26.4709 8.99983 28.1833 8.99982 28.1833 8.99982C28.5404 8.99983 25.5445 8.99985 27.8065 8.99982C30.0685 8.99979 30.0685 11.8728 27.8065 11.8728C25.5445 11.8728 26.8477 11.8728 25.565 11.8728C24.6658 11.8728 23.998 12.0348 23.5617 12.3589C23.1385 12.6831 22.9269 13.1103 22.9269 13.6407C22.9269 14.1711 23.1716 14.5689 23.6608 14.8341C24.1633 15.0845 24.9237 15.335 25.9419 15.5855C26.9998 15.8654 27.866 16.1453 28.5404 16.4252C29.2148 16.7052 29.79 17.1472 30.2661 17.7512C30.7554 18.3553 31 19.1729 31 20.2042C31 21.0882 30.7752 21.8985 30.3256 22.6352C29.8892 23.3571 29.228 23.9317 28.342 24.3589C27.456 24.7862 26.3783 24.9998 25.1088 24.9998Z" fill="black"/>
<path d="M20.757 16.6798C21.4579 16.9693 22.007 17.457 22.4042 18.1427C22.8014 18.8132 23 19.6436 23 20.6341C23 22.036 22.5794 23.1179 21.7383 23.8798C20.9089 24.6265 19.6939 24.9998 18.0935 24.9998H8L11.75 23.222V8.99982H17.743C19.2383 8.99982 20.3832 9.37315 21.1776 10.1198C21.9836 10.8665 22.3867 11.8798 22.3867 13.1598C22.3867 13.937 22.2407 14.6303 21.9486 15.2398C21.6682 15.8493 21.271 16.3293 20.757 16.6798ZM14.5713 11.7884V15.5598H17.3925C18.0935 15.5598 18.625 15.3998 18.9871 15.0798C19.3493 14.7598 19.5304 14.2874 19.5304 13.6627C19.5304 13.0379 19.3493 12.5732 18.9871 12.2684C18.625 11.9484 18.0935 11.7884 17.3925 11.7884H14.5713ZM17.8832 22.0998C18.6308 22.0998 19.1916 22.0512 19.5654 21.7312C19.9509 21.4112 20.1437 20.916 20.1437 20.2455C20.1437 18.9198 19.3902 18.257 17.8832 18.257H14.5713V22.0998H17.8832Z" fill="#981564"/>
<path d="M8.85351 24.9998C7.70838 24.9998 6.99106 24.9998 5.97696 24.9998C4.96285 24.9998 6.86204 24.9998 4.6015 24.9998C2.34095 24.9998 2.59518 22.1269 4.60143 22.1269C6.60768 22.1269 5.97696 22.1269 5.97696 22.1269C5.97696 22.1269 8.0188 22.1269 8.87421 22.1269C9.82619 22.1269 10.5298 21.9796 10.9851 21.6849C11.4404 21.3755 11.6681 20.9704 11.6681 20.4694C11.6681 20.1011 11.5301 19.7991 11.2542 19.5634C10.992 19.3129 10.6471 19.114 10.2194 18.9667C9.80549 18.8193 9.23982 18.6573 8.52239 18.4805C7.41864 18.2006 6.51495 17.9206 5.81131 17.6407C5.10767 17.3608 4.50061 16.9114 3.99012 16.2926C3.49344 15.6739 3.2451 14.8488 3.2451 13.8175C3.2451 12.9188 3.47274 12.1085 3.92804 11.3866C4.38334 10.6499 5.06628 10.068 5.97687 9.64072C6.90126 9.21346 8.0257 8.99983 9.3502 8.99983C10.2746 8.99983 12.0613 8.99982 12.0613 8.99982C12.4338 8.99983 10.1732 8.99982 12.4338 8.99982C14.6944 8.99982 14.6944 11.8728 12.4338 11.8728C10.1732 11.8728 10.6678 11.8728 9.32951 11.8728C8.39132 11.8728 7.69458 12.0348 7.23928 12.3589C6.79778 12.6831 6.57704 13.1103 6.57704 13.6407C6.57704 14.1711 6.83228 14.5689 7.34276 14.8341C7.86704 15.0845 8.66036 15.335 9.72271 15.5855C10.8265 15.8654 11.7302 16.1453 12.4338 16.4252C13.1374 16.7052 13.7376 17.1472 14.2343 17.7512C14.7448 18.3553 15 19.1729 15 20.2042C15 21.0882 14.7655 21.8985 14.2964 22.6352C13.8411 23.3571 13.1512 23.9317 12.2268 24.3589C11.3024 24.7862 10.178 24.9998 8.85351 24.9998Z" fill="black"/>
</svg>
