<svg width="29" height="26" viewBox="0 0 29 26" fill="none" xmlns="http://www.w3.org/2000/svg">
<path d="M9.66697 0C8.32865 0 7.02038 0.395881 5.90761 1.13758C4.79484 1.87928 3.92754 2.93349 3.41538 4.16689C2.90323 5.40029 2.76923 6.75749 3.03032 8.06686C3.29142 9.37623 3.93588 10.579 4.88221 11.523C5.82855 12.467 7.03425 13.1098 8.34686 13.3703C9.65946 13.6308 11.02 13.4971 12.2565 12.9862C13.4929 12.4753 14.5497 11.6101 15.2933 10.5001C16.0368 9.39007 16.4336 8.08502 16.4336 6.75C16.4336 4.95979 15.7207 3.2429 14.4517 1.97703C13.1827 0.711159 11.4616 0 9.66697 0Z" fill="#D8D8D8"/>
<path d="M19.3333 26H17.4H1.93333H0V21.1786C0 19.3884 0.712914 17.6715 1.98191 16.4056C3.25091 15.1397 4.97203 14.4286 6.76667 14.4286H12.5667C14.3613 14.4286 16.0824 15.1397 17.3514 16.4056C18.6204 17.6715 19.3333 19.3884 19.3333 21.1786V26Z" fill="#D8D8D8"/>
<path d="M19.3337 1.92857H29.0003V3.85714H19.3337V1.92857Z" fill="#D8D8D8"/>
<path d="M19.3337 6.75H29.0003V8.67857H19.3337V6.75Z" fill="#D8D8D8"/>
<path d="M19.3337 11.5714H26.1003V13.5H19.3337V11.5714Z" fill="#D8D8D8"/>
</svg>
