<svg width="28" height="26" viewBox="0 0 28 26" fill="none" xmlns="http://www.w3.org/2000/svg">
<path d="M23.9167 0H12.25C11.1674 0.00117312 10.1294 0.437344 9.36393 1.21281C8.5984 1.98827 8.16782 3.03969 8.16667 4.13636V11.8182H19.3499L15.5086 7.92631C15.2991 7.70287 15.184 7.40535 15.1879 7.09717C15.1918 6.789 15.3144 6.49456 15.5295 6.27663C15.7446 6.0587 16.0353 5.93453 16.3395 5.93058C16.6437 5.92664 16.9374 6.04323 17.158 6.25551L22.9914 12.1646C23.21 12.3862 23.3328 12.6867 23.3328 13C23.3328 13.3133 23.21 13.6138 22.9914 13.8354L17.158 19.7445C16.9374 19.9568 16.6437 20.0734 16.3395 20.0694C16.0353 20.0655 15.7446 19.9413 15.5295 19.7234C15.3144 19.5054 15.1918 19.211 15.1879 18.9028C15.184 18.5947 15.2991 18.2971 15.5086 18.0737L19.3499 14.1818H8.16667V21.8636C8.16667 24.231 10.6305 26 12.8333 26H23.9167C24.9993 25.9988 26.0372 25.5627 26.8027 24.7872C27.5683 24.0117 27.9988 22.9603 28 21.8636V4.13636C27.9988 3.03969 27.5683 1.98827 26.8027 1.21281C26.0372 0.437344 24.9993 0.00117312 23.9167 0Z" fill="#D8D8D8"/>
<path d="M1.16667 11.8182C0.857247 11.8182 0.560501 11.9427 0.341709 12.1643C0.122917 12.386 0 12.6866 0 13C0 13.3134 0.122917 13.614 0.341709 13.8357C0.560501 14.0573 0.857247 14.1818 1.16667 14.1818H8.16667V11.8182H1.16667Z" fill="#D8D8D8"/>
</svg>
