<svg width="31" height="26" viewBox="0 0 31 26" fill="none" xmlns="http://www.w3.org/2000/svg">
<path d="M9.66697 0C8.32865 0 7.02038 0.395881 5.90761 1.13758C4.79484 1.87928 3.92754 2.93349 3.41538 4.16689C2.90323 5.40029 2.76923 6.75749 3.03032 8.06686C3.29142 9.37623 3.93588 10.579 4.88221 11.523C5.82855 12.467 7.03425 13.1098 8.34686 13.3703C9.65946 13.6308 11.02 13.4971 12.2565 12.9862C13.4929 12.4753 14.5497 11.6101 15.2933 10.5001C16.0368 9.39007 16.4336 8.08502 16.4336 6.75C16.4336 4.95979 15.7207 3.2429 14.4517 1.97703C13.1827 0.711159 11.4616 0 9.66697 0Z" fill="#D8D8D8"/>
<path d="M19.3333 26H0V21.1786C0 19.3884 0.712914 17.6715 1.98191 16.4056C3.25091 15.1397 4.97203 14.4286 6.76667 14.4286H12.5667C14.3613 14.4286 16.0824 15.1397 17.3514 16.4056C18.6204 17.6715 19.3333 19.3884 19.3333 21.1786V26Z" fill="#D8D8D8"/>
<path d="M30.8268 6.93604L29.262 6.46938C29.1538 6.09199 29.005 5.72742 28.8182 5.38205L29.5843 3.94939C29.613 3.89531 29.6236 3.83342 29.6143 3.77289C29.6051 3.71236 29.5765 3.65643 29.5329 3.61339L28.4165 2.4934C28.3734 2.44984 28.3174 2.42133 28.2568 2.41208C28.1962 2.40283 28.1343 2.41335 28.0802 2.44206L26.6554 3.20273C26.3063 3.00704 25.9366 2.85053 25.553 2.73606L25.0859 1.1914C25.0661 1.13448 25.0288 1.08528 24.9793 1.0509C24.9298 1.01652 24.8706 0.998722 24.8103 1.00007H23.2314C23.1708 1.00035 23.1118 1.01997 23.063 1.05606C23.0143 1.09215 22.9784 1.14283 22.9605 1.20074L22.4934 2.74073C22.1066 2.85459 21.7337 3.0111 21.3816 3.20739L19.9802 2.4514C19.9261 2.42268 19.8642 2.41216 19.8036 2.42141C19.743 2.43066 19.687 2.45918 19.6439 2.50273L18.5088 3.60872C18.4652 3.65176 18.4367 3.70769 18.4274 3.76822C18.4182 3.82875 18.4287 3.89065 18.4574 3.94472L19.2142 5.34472C19.018 5.69499 18.8613 6.06592 18.747 6.45071L17.2009 6.91738C17.1429 6.93526 17.0922 6.97115 17.056 7.01983C17.0199 7.06851 17.0003 7.12744 17 7.18804V8.76536C17.0003 8.82596 17.0199 8.88489 17.056 8.93357C17.0922 8.98225 17.1429 9.01815 17.2009 9.03603L18.7564 9.50269C18.8719 9.88107 19.0286 10.2457 19.2235 10.59L18.4574 12.0553C18.4287 12.1094 18.4182 12.1713 18.4274 12.2318C18.4367 12.2924 18.4652 12.3483 18.5088 12.3913L19.6252 13.5067C19.6683 13.5502 19.7243 13.5787 19.7849 13.588C19.8455 13.5972 19.9074 13.5867 19.9616 13.558L21.405 12.788C21.7464 12.9721 22.1066 13.1191 22.4794 13.2267L22.9465 14.7993C22.9644 14.8572 23.0003 14.9079 23.049 14.944C23.0978 14.9801 23.1567 14.9997 23.2174 15H24.7963C24.8569 14.9997 24.9159 14.9801 24.9647 14.944C25.0134 14.9079 25.0493 14.8572 25.0672 14.7993L25.5343 13.222C25.9039 13.1139 26.2609 12.9669 26.5994 12.7833L28.0521 13.558C28.1063 13.5867 28.1682 13.5972 28.2288 13.588C28.2894 13.5787 28.3454 13.5502 28.3885 13.5067L29.5049 12.3913C29.5485 12.3483 29.577 12.2924 29.5863 12.2318C29.5955 12.1713 29.585 12.1094 29.5563 12.0553L28.7808 10.6087C28.9665 10.2693 29.1152 9.91103 29.2246 9.54003L30.7988 9.07336C30.8568 9.05548 30.9075 9.01959 30.9436 8.97091C30.9798 8.92223 30.9994 8.8633 30.9997 8.8027V7.21137C31.0024 7.15334 30.9874 7.09586 30.9565 7.04665C30.9256 6.99743 30.8803 6.95883 30.8268 6.93604ZM24.0209 10.5667C23.5127 10.5667 23.016 10.4162 22.5935 10.1341C22.171 9.8521 21.8417 9.45125 21.6473 8.98225C21.4528 8.51326 21.4019 7.99719 21.501 7.49931C21.6002 7.00143 21.8449 6.54409 22.2042 6.18514C22.5635 5.82618 23.0213 5.58173 23.5196 5.4827C24.018 5.38367 24.5346 5.43449 25.004 5.62876C25.4735 5.82302 25.8747 6.152 26.1571 6.57408C26.4394 6.99616 26.59 7.4924 26.59 8.00004C26.59 8.68075 26.3194 9.33359 25.8375 9.81493C25.3557 10.2963 24.7022 10.5667 24.0209 10.5667Z" fill="#D8D8D8"/>
</svg>
