<svg width="46" height="46" viewBox="0 0 46 46" fill="none" xmlns="http://www.w3.org/2000/svg">
<path fill-rule="evenodd" clip-rule="evenodd" d="M23 46C35.7025 46 46 35.7025 46 23C46 10.2975 35.7025 0 23 0C10.2975 0 0 10.2975 0 23C0 35.7025 10.2975 46 23 46ZM19.248 21.7666C19.9102 22.3701 20.9648 22.8799 22.4121 23.2959C23.5664 23.6299 24.3633 23.9697 24.8027 24.3154C25.2422 24.6553 25.4619 25.1387 25.4619 25.7656C25.4619 26.3926 25.2246 26.8877 24.75 27.251C24.2754 27.6143 23.5928 27.7959 22.7021 27.7959C21.7471 27.7959 20.9824 27.5732 20.4082 27.1279C19.8398 26.6768 19.5557 26.0645 19.5557 25.291H17.8594C17.8594 26.0352 18.0645 26.7002 18.4746 27.2861C18.8906 27.8721 19.4795 28.335 20.2412 28.6748C21.0029 29.0088 21.8232 29.1758 22.7021 29.1758C24.0557 29.1758 25.1367 28.8652 25.9453 28.2441C26.7539 27.6172 27.1582 26.7852 27.1582 25.748C27.1582 25.0977 27.0117 24.5322 26.7188 24.0518C26.4316 23.5713 25.9863 23.1523 25.3828 22.7949C24.7852 22.4316 23.9531 22.1006 22.8867 21.8018C21.8262 21.5029 21.0732 21.1748 20.6279 20.8174C20.1885 20.4541 19.9688 20.0117 19.9688 19.4902C19.9688 18.8398 20.2002 18.333 20.6631 17.9697C21.1318 17.6006 21.7822 17.416 22.6143 17.416C23.5107 17.416 24.2051 17.6387 24.6973 18.084C25.1895 18.5234 25.4355 19.1299 25.4355 19.9033H27.1318C27.1318 19.1943 26.9414 18.541 26.5605 17.9434C26.1855 17.3457 25.6523 16.877 24.9609 16.5371C24.2754 16.1973 23.4932 16.0273 22.6143 16.0273C21.3252 16.0273 20.2764 16.3584 19.4678 17.0205C18.665 17.6768 18.2637 18.5088 18.2637 19.5166C18.2637 20.4072 18.5918 21.1572 19.248 21.7666Z" fill="#D8D8D8"/>
</svg>
