<svg width="35" height="29" viewBox="0 0 35 29" fill="none" xmlns="http://www.w3.org/2000/svg">
<path d="M5.83283 18.7982C5.42078 18.7982 5.01799 18.9197 4.67539 19.1473C4.33279 19.3749 4.06576 19.6984 3.90808 20.0769C3.7504 20.4554 3.70914 20.8719 3.78953 21.2738C3.86991 21.6756 4.06833 22.0447 4.35969 22.3344C4.65105 22.6241 5.02226 22.8213 5.42639 22.9013C5.83052 22.9812 6.24941 22.9402 6.63008 22.7834C7.01076 22.6266 7.33614 22.3611 7.56506 22.0205C7.79398 21.6798 7.91616 21.2793 7.91616 20.8696C7.91451 20.3208 7.69449 19.7948 7.30415 19.4067C6.9138 19.0186 6.38485 18.7999 5.83283 18.7982ZM10.3307 20.8696C10.3297 21.0632 10.3154 21.2565 10.288 21.4481L11.556 22.4351C11.6112 22.4805 11.6484 22.5438 11.661 22.614C11.6735 22.6841 11.6606 22.7563 11.6245 22.8178L10.425 24.8768C10.3886 24.9378 10.3316 24.984 10.2643 25.0073C10.1969 25.0307 10.1235 25.0297 10.0568 25.0045L8.5659 24.4089C8.25545 24.6466 7.91572 24.8439 7.55496 24.9959L7.33205 26.5697C7.31957 26.6402 7.28286 26.7042 7.22819 26.7508C7.17352 26.7973 7.10428 26.8236 7.03231 26.825H4.63335C4.56268 26.8236 4.49457 26.7985 4.44013 26.7537C4.38569 26.7089 4.34814 26.647 4.33361 26.5782L4.11069 25.0045C3.74894 24.8542 3.40896 24.6566 3.09976 24.417L1.60887 25.0125C1.54223 25.0377 1.46877 25.0388 1.40142 25.0155C1.33407 24.9922 1.27714 24.946 1.24064 24.8851L0.0411611 22.8264C0.00505641 22.7649 -0.00787828 22.6926 0.0046685 22.6225C0.0172153 22.5524 0.054426 22.489 0.109651 22.4437L1.37762 21.4566C1.35057 21.2621 1.33631 21.066 1.33491 20.8696C1.33599 20.6761 1.35026 20.4828 1.37762 20.2912L0.109651 19.3042C0.054426 19.2588 0.0172153 19.1954 0.0046685 19.1253C-0.00787828 19.0552 0.00505641 18.983 0.0411611 18.9215L1.24064 16.8625C1.2771 16.8015 1.33402 16.7553 1.40137 16.7319C1.46872 16.7086 1.5422 16.7096 1.60887 16.7348L3.09976 17.3303C3.4102 17.0927 3.74993 16.8954 4.11069 16.7434L4.33361 15.1696C4.34609 15.0991 4.3828 15.0351 4.43747 14.9885C4.49214 14.942 4.56138 14.9157 4.63335 14.9143H7.03231C7.10297 14.9157 7.17108 14.9408 7.22552 14.9856C7.27996 15.0304 7.31751 15.0923 7.33205 15.161L7.55496 16.7348C7.91717 16.885 8.25759 17.0826 8.5672 17.3223L10.0568 16.7268C10.1234 16.7016 10.1969 16.7005 10.2642 16.7238C10.3316 16.7471 10.3885 16.7933 10.425 16.8542L11.6245 18.9132C11.6606 18.9747 11.6735 19.0469 11.661 19.117C11.6484 19.1871 11.6112 19.2505 11.556 19.2959L10.288 20.2829C10.3151 20.4774 10.3293 20.6734 10.3307 20.8696Z" fill="#D8D8D8"/>
<path d="M16.6667 5.9441C16.0191 5.9441 15.3861 6.13003 14.8477 6.47837C14.3093 6.82672 13.8896 7.32183 13.6418 7.90111C13.394 8.48038 13.3292 9.1178 13.4555 9.73276C13.5818 10.3477 13.8936 10.9126 14.3515 11.3559C14.8094 11.7993 15.3928 12.1012 16.0279 12.2236C16.663 12.3459 17.3213 12.2831 17.9196 12.0432C18.5179 11.8032 19.0292 11.3969 19.389 10.8755C19.7487 10.3542 19.9408 9.74129 19.9408 9.11429C19.9382 8.27427 19.5924 7.46938 18.9789 6.8754C18.3655 6.28141 17.5342 5.94661 16.6667 5.9441ZM23.7354 9.11429C23.7337 9.41051 23.7113 9.70627 23.6683 9.99956L25.661 11.5102C25.7478 11.5795 25.8063 11.6766 25.826 11.7838C25.8457 11.8911 25.8254 12.0017 25.7686 12.0958L23.8836 15.247C23.8263 15.3403 23.7368 15.411 23.631 15.4468C23.5251 15.4825 23.4097 15.4809 23.3049 15.4424L20.9619 14.5309C20.474 14.8947 19.9401 15.1966 19.3731 15.4293L19.0228 17.8378C19.0032 17.9457 18.9455 18.0437 18.8596 18.1149C18.7736 18.1862 18.6648 18.2264 18.5517 18.2286H14.7816C14.6706 18.2265 14.5635 18.188 14.478 18.1194C14.3924 18.0508 14.3334 17.9562 14.3105 17.8509L13.9602 15.4424C13.3917 15.2124 12.8574 14.91 12.3715 14.5432L10.0284 15.4547C9.92371 15.4933 9.80827 15.4949 9.70243 15.4592C9.59659 15.4236 9.50711 15.3529 9.44975 15.2597L7.56469 12.1089C7.50795 12.0148 7.48762 11.9042 7.50734 11.7969C7.52705 11.6896 7.58553 11.5926 7.67232 11.5232L9.66502 10.0126C9.62251 9.71492 9.60009 9.41483 9.5979 9.11429C9.5996 8.81807 9.62203 8.5223 9.66502 8.22901L7.67232 6.71842C7.58553 6.64903 7.52705 6.55202 7.50734 6.44473C7.48762 6.33743 7.50795 6.22684 7.56469 6.13273L9.44975 2.98156C9.50705 2.88828 9.59649 2.81754 9.70234 2.78181C9.80819 2.74608 9.92366 2.74763 10.0284 2.7862L12.3715 3.69763C12.8594 3.33385 13.3933 3.03196 13.9602 2.79927L14.3105 0.390725C14.3302 0.28284 14.3878 0.184895 14.4738 0.113629C14.5597 0.042363 14.6685 0.00219882 14.7816 0H18.5517C18.6628 0.00209293 18.7698 0.0405749 18.8554 0.109164C18.9409 0.177753 18.9999 0.272398 19.0228 0.377648L19.3731 2.7862C19.9423 3.01602 20.4773 3.31841 20.9639 3.68534L23.3049 2.77391C23.4096 2.73531 23.5251 2.7337 23.6309 2.76936C23.7367 2.80502 23.8262 2.87566 23.8836 2.96888L25.7686 6.12004C25.8254 6.21416 25.8457 6.32475 25.826 6.43204C25.8063 6.53934 25.7478 6.63635 25.661 6.70574L23.6683 8.21633C23.7108 8.51392 23.7332 8.81387 23.7354 9.11429Z" fill="#D8D8D8"/>
<path d="M27.9167 19.5075C27.4163 19.5075 26.9271 19.6511 26.5111 19.9203C26.095 20.1895 25.7708 20.5721 25.5793 21.0197C25.3878 21.4673 25.3377 21.9599 25.4353 22.4351C25.5329 22.9102 25.7739 23.3467 26.1277 23.6893C26.4815 24.0319 26.9323 24.2652 27.4231 24.3598C27.9139 24.4543 28.4226 24.4058 28.8848 24.2204C29.3471 24.035 29.7423 23.721 30.0203 23.3181C30.2983 22.9153 30.4466 22.4416 30.4466 21.9571C30.4446 21.308 30.1775 20.6861 29.7034 20.2271C29.2294 19.7681 28.587 19.5094 27.9167 19.5075ZM33.3789 21.9571C33.3776 22.186 33.3603 22.4146 33.327 22.6412L34.8668 23.8085C34.9339 23.8621 34.9791 23.9371 34.9943 24.02C35.0096 24.1029 34.9939 24.1883 34.95 24.2611L33.4934 26.6961C33.4491 26.7682 33.38 26.8228 33.2982 26.8504C33.2164 26.878 33.1272 26.8768 33.0462 26.847L31.2357 26.1427C30.8587 26.4238 30.4461 26.6571 30.008 26.8369L29.7373 28.6981C29.7222 28.7814 29.6776 28.8571 29.6112 28.9122C29.5448 28.9673 29.4607 28.9983 29.3733 29H26.46C26.3742 28.9984 26.2915 28.9686 26.2254 28.9156C26.1593 28.8626 26.1137 28.7895 26.096 28.7082L25.8253 26.847C25.386 26.6693 24.9731 26.4357 24.5976 26.1522L22.7871 26.8565C22.7062 26.8864 22.617 26.8876 22.5352 26.86C22.4534 26.8325 22.3843 26.7779 22.34 26.7059L20.8833 24.2712C20.8395 24.1985 20.8238 24.113 20.839 24.0301C20.8542 23.9472 20.8994 23.8722 20.9665 23.8186L22.5063 22.6513C22.4735 22.4213 22.4561 22.1894 22.4544 21.9571C22.4558 21.7282 22.4731 21.4997 22.5063 21.2731L20.9665 20.1058C20.8994 20.0522 20.8542 19.9772 20.839 19.8943C20.8238 19.8114 20.8395 19.7259 20.8833 19.6532L22.34 17.2182C22.3842 17.1461 22.4534 17.0915 22.5351 17.0639C22.6169 17.0363 22.7062 17.0375 22.7871 17.0673L24.5976 17.7715C24.9747 17.4904 25.3872 17.2572 25.8253 17.0774L26.096 15.2162C26.1112 15.1328 26.1558 15.0572 26.2222 15.0021C26.2885 14.947 26.3726 14.916 26.46 14.9143H29.3733C29.4591 14.9159 29.5418 14.9456 29.6079 14.9986C29.6741 15.0516 29.7197 15.1248 29.7373 15.2061L30.008 17.0673C30.4479 17.2449 30.8613 17.4785 31.2373 17.7621L33.0462 17.0578C33.1271 17.0279 33.2163 17.0267 33.2981 17.0542C33.3799 17.0818 33.449 17.1364 33.4934 17.2084L34.95 19.6434C34.9939 19.7161 35.0096 19.8016 34.9943 19.8845C34.9791 19.9674 34.9339 20.0424 34.8668 20.096L33.327 21.2633C33.3599 21.4932 33.3772 21.725 33.3789 21.9571Z" fill="#D8D8D8"/>
</svg>
