<svg width="27" height="27" viewBox="0 0 27 27" fill="none" xmlns="http://www.w3.org/2000/svg">
<path fill-rule="evenodd" clip-rule="evenodd" d="M23.6481 10.5481L26.6661 11.4481C26.7692 11.492 26.8565 11.5665 26.916 11.6614C26.9756 11.7563 27.0047 11.8672 26.9994 11.9791V15.0481C26.9988 15.1649 26.961 15.2786 26.8913 15.3725C26.8216 15.4664 26.7238 15.5356 26.612 15.5701L23.576 16.4701C23.3651 17.1856 23.0782 17.8765 22.7202 18.5311L24.2157 21.321C24.2711 21.4253 24.2914 21.5447 24.2736 21.6614C24.2557 21.7782 24.2007 21.886 24.1166 21.969L21.9635 24.12C21.8804 24.204 21.7724 24.259 21.6556 24.2769C21.5387 24.2947 21.4192 24.2744 21.3148 24.219L18.5131 22.725C17.8604 23.079 17.1718 23.3626 16.4591 23.571L15.5582 26.613C15.5237 26.7247 15.4544 26.8224 15.3604 26.892C15.2664 26.9616 15.1527 26.9995 15.0357 27H11.9907C11.8737 26.9995 11.76 26.9616 11.666 26.892C11.572 26.8224 11.5027 26.7247 11.4682 26.613L10.5673 23.58C9.84844 23.3726 9.15382 23.089 8.4953 22.734L5.71159 24.219C5.60719 24.2744 5.4877 24.2947 5.37085 24.2769C5.25401 24.259 5.14603 24.204 5.06295 24.12L2.90985 21.969C2.82577 21.886 2.77072 21.7782 2.75286 21.6614C2.73501 21.5447 2.75531 21.4253 2.81075 21.321L4.28819 18.4951C3.91223 17.831 3.61014 17.1278 3.38731 16.3981L0.387379 15.4981C0.2756 15.4636 0.177753 15.3944 0.108081 15.3005C0.0384076 15.2066 0.000544649 15.0929 0 14.9761V11.9341C0.000544649 11.8172 0.0384076 11.7036 0.108081 11.6097C0.177753 11.5158 0.2756 11.4466 0.387379 11.4121L3.36929 10.5121C3.58971 9.77 3.89185 9.05463 4.27017 8.3791L2.81075 5.67911C2.75531 5.57482 2.73501 5.45545 2.75286 5.33872C2.77072 5.22198 2.82577 5.11411 2.90985 5.03111L5.09899 2.89812C5.18207 2.81413 5.29004 2.75913 5.40689 2.7413C5.52373 2.72346 5.64322 2.74374 5.74762 2.79912L8.45026 4.25712C9.12931 3.87856 9.84844 3.5767 10.5944 3.35712L11.4952 0.387136C11.5298 0.275467 11.599 0.177718 11.693 0.108113C11.787 0.0385086 11.9008 0.000681965 12.0177 0.000137851H15.0627C15.179 -0.00246531 15.2931 0.0318579 15.3886 0.098167C15.4841 0.164476 15.5561 0.259351 15.5942 0.369136L16.4951 3.34812C17.2349 3.56888 17.9479 3.87071 18.6212 4.24812L21.3689 2.78112C21.4733 2.72574 21.5928 2.70546 21.7096 2.7233C21.8265 2.74113 21.9344 2.79613 22.0175 2.88012L24.1706 5.04011C24.2547 5.12311 24.3098 5.23098 24.3276 5.34772C24.3455 5.46445 24.3252 5.58382 24.2697 5.68811L22.7923 8.4511C23.1525 9.11718 23.4395 9.82027 23.6481 10.5481ZM18.3312 18.433L21.5631 14.1933C21.7589 13.9976 21.8569 13.7638 21.8569 13.4921C21.8569 13.2203 21.7589 12.9866 21.5631 12.7909L18.3312 8.56747C18.1353 8.37179 17.8987 8.27395 17.6212 8.27395C17.3437 8.27395 17.107 8.37179 16.9111 8.56747C16.7153 8.76315 16.6173 8.99688 16.6173 9.26866C16.6173 9.54043 16.7153 9.77416 16.9111 9.96984L19.6044 13.4921L16.9111 17.0143C16.7153 17.21 16.6173 17.4464 16.6173 17.7236C16.6173 18.0009 16.7153 18.2346 16.9111 18.4248C17.107 18.6151 17.3437 18.7102 17.6212 18.7102C17.8987 18.7102 18.1353 18.6178 18.3312 18.433ZM13.4508 21.0013C13.4725 20.9089 13.4888 20.8464 13.4997 20.8137L15.5564 6.33346C15.6325 6.05082 15.6298 5.78176 15.5482 5.52629C15.4666 5.27081 15.3061 5.14308 15.0667 5.14308C14.207 5.14308 13.6847 5.49095 13.4997 6.1867L11.4431 20.667C11.3778 20.917 11.4648 21.1779 11.7042 21.4497C11.9436 21.7215 12.1939 21.8574 12.4551 21.8574L12.7489 21.8329L12.9692 21.7758L13.1406 21.6617L13.263 21.5312L13.3447 21.36L13.4018 21.1888C13.4127 21.1562 13.429 21.0937 13.4508 21.0013ZM9.37828 18.7102C9.65576 18.7102 9.89244 18.6151 10.0883 18.4248C10.2842 18.2346 10.3821 18.0009 10.3821 17.7236C10.3821 17.4464 10.2842 17.21 10.0883 17.0143L7.39509 13.4921L10.0883 9.96984C10.2842 9.77416 10.3821 9.54043 10.3821 9.26866C10.3821 8.99688 10.2842 8.76315 10.0883 8.56747C9.89244 8.37179 9.65576 8.27395 9.37828 8.27395C9.1008 8.27395 8.86412 8.37179 8.66825 8.56747L5.43638 12.7909C5.24051 12.9866 5.14258 13.2203 5.14258 13.4921C5.14258 13.7638 5.24051 13.9976 5.43638 14.1933L8.66825 18.433C8.86412 18.6178 9.1008 18.7102 9.37828 18.7102Z" fill="#D8D8D8"/>
</svg>
