<svg width="32" height="32" viewBox="0 0 32 32" fill="none" xmlns="http://www.w3.org/2000/svg">
<path d="M23.0736 9.38824L20.2554 23.2015C20.2554 23.2015 20.1343 23.8327 19.3188 23.8327C18.8855 23.8327 18.662 23.6348 18.662 23.6348L12.5577 18.7721L9.57106 17.3269L5.73801 16.3483C5.73801 16.3483 5.05566 16.1591 5.05566 15.6174C5.05566 15.166 5.75757 14.9508 5.75757 14.9508L21.7939 8.83502C21.7939 8.83502 22.2837 8.6653 22.641 8.66602C22.8607 8.66602 23.1112 8.7563 23.1112 9.02713C23.1112 9.20768 23.0736 9.38824 23.0736 9.38824Z" fill="white"/>
<path d="M14.4446 20.5905L11.9659 23.024C11.9659 23.024 11.8581 23.1069 11.7141 23.1105C11.6642 23.112 11.6106 23.104 11.5557 23.0795L12.2531 18.7773L14.4446 20.5905Z" fill="#92999D"/>
<path d="M20.1429 11.6965C20.0121 11.5372 19.7707 11.5083 19.6005 11.6292L9.38892 17.348C9.38892 17.348 11.0186 21.6148 11.267 22.3535C11.5162 23.0929 11.7158 23.1102 11.7158 23.1102L12.4618 18.7905L20.0702 12.2035C20.2404 12.0825 20.2721 11.8559 20.1429 11.6965Z" fill="#B7BDBF"/>
<circle cx="15.8889" cy="15.8889" r="15.3889" stroke="white"/>
</svg>
