<svg width="66" height="124" viewBox="0 0 66 124" fill="none" xmlns="http://www.w3.org/2000/svg">
<path d="M33 70.6762L64.7906 95.456C65.2781 95.8388 66 95.4933 66 94.8678V87.6504C66 87.1929 65.7844 86.7541 65.4281 86.474L34.8469 62.6372C34.3187 62.2244 33.6667 62 32.9953 62C32.3239 62 31.6719 62.2244 31.1438 62.6372L0.571873 86.474C0.206248 86.7541 0 87.1929 0 87.6504V94.8678C0 95.4933 0.721877 95.8388 1.20938 95.456L33 70.6762ZM33 99.06L64.7906 123.84C65.2781 124.223 66 123.877 66 123.252V116.034C66 115.577 65.7844 115.138 65.4281 114.858L34.8469 91.021C34.3187 90.6082 33.6667 90.3838 32.9953 90.3838C32.3239 90.3838 31.6719 90.6082 31.1438 91.021L0.571873 114.858C0.206248 115.138 0 115.577 0 116.034V123.252C0 123.877 0.721877 124.223 1.20938 123.84L33 99.06Z" fill="url(#paint0_linear)"/>
<path d="M33 8.67616L64.7906 33.456C65.2781 33.8388 66 33.4933 66 32.8677V25.6504C66 25.1929 65.7844 24.7541 65.4281 24.474L34.8469 0.637198C34.3187 0.224375 33.6667 0 32.9953 0C32.3239 0 31.6719 0.224375 31.1438 0.637198L0.571873 24.474C0.206248 24.7541 0 25.1929 0 25.6504V32.8677C0 33.4933 0.721877 33.8388 1.20938 33.456L33 8.67616ZM33 37.06L64.7906 61.8398C65.2781 62.2226 66 61.8771 66 61.2515V54.0342C66 53.5767 65.7844 53.1379 65.4281 52.8578L34.8469 29.021C34.3187 28.6082 33.6667 28.3838 32.9953 28.3838C32.3239 28.3838 31.6719 28.6082 31.1438 29.021L0.571873 52.8578C0.206248 53.1379 0 53.5767 0 54.0342V61.2515C0 61.8771 0.721877 62.2226 1.20938 61.8398L33 37.06Z" fill="url(#paint1_linear)"/>
<defs>
<linearGradient id="paint0_linear" x1="33" y1="0" x2="33" y2="124" gradientUnits="userSpaceOnUse">
<stop stop-color="#981564"/>
<stop offset="1" stop-color="#981564" stop-opacity="0"/>
</linearGradient>
<linearGradient id="paint1_linear" x1="33" y1="0" x2="33" y2="124" gradientUnits="userSpaceOnUse">
<stop stop-color="#981564"/>
<stop offset="1" stop-color="#981564" stop-opacity="0"/>
</linearGradient>
</defs>
</svg>
