<?xml version="1.0" standalone="no"?>
<!DOCTYPE svg PUBLIC "-//W3C//DTD SVG 20010904//EN"
 "http://www.w3.org/TR/2001/REC-SVG-20010904/DTD/svg10.dtd">
<svg version="1.0" xmlns="http://www.w3.org/2000/svg"
 width="270.000000pt" height="270.000000pt" viewBox="0 0 270.000000 270.000000"
 preserveAspectRatio="xMidYMid meet">
<metadata>
Created by potrace 1.11, written by Peter Selinger 2001-2013
</metadata>
<g transform="translate(0.000000,270.000000) scale(0.100000,-0.100000)"
fill="#000000" stroke="none">
<path d="M2236 1945 c-5 -11 -10 -24 -10 -28 -1 -5 -9 -14 -18 -21 -10 -7 -15
-16 -12 -19 3 -3 -4 -11 -16 -17 -16 -9 -25 -8 -38 2 -11 9 -14 10 -8 1 4 -8
2 -13 -8 -13 -8 0 -17 8 -21 18 -3 11 -17 24 -30 30 -20 10 -29 9 -45 -5 -10
-9 -16 -21 -13 -26 3 -5 -4 -4 -16 2 -17 10 -20 9 -15 -4 4 -8 10 -15 14 -15
15 0 10 -94 -6 -111 -13 -15 -21 -16 -47 -7 -18 6 -35 15 -38 20 -3 5 -37 11
-75 14 -38 2 -77 7 -87 10 -58 18 -120 -56 -121 -144 -1 -61 -4 -64 -101 -77
-22 -4 -53 -9 -70 -11 -16 -3 -39 -7 -50 -9 -19 -3 -47 -8 -117 -21 -18 -4
-42 -8 -53 -9 -11 -2 -22 -4 -25 -6 -3 -1 -9 -3 -15 -4 -5 -2 -13 -4 -17 -5
-5 -1 -11 -3 -15 -4 -5 -1 -24 -7 -43 -14 -19 -6 -45 -13 -57 -15 -12 -2 -26
-6 -29 -10 -4 -4 -16 -7 -26 -7 -15 0 -103 -26 -158 -47 -8 -3 -19 -7 -25 -9
-31 -9 -81 -30 -86 -37 -3 -5 -9 -8 -13 -8 -3 1 -22 -6 -42 -14 -20 -8 -38
-15 -40 -15 -5 0 -41 -29 -74 -60 -30 -28 -40 -100 -14 -100 8 0 14 -4 14 -9
0 -11 76 -47 115 -55 17 -3 50 -10 75 -15 24 -5 52 -8 62 -6 10 2 20 0 22 -4
3 -4 27 -9 53 -10 26 -2 54 -3 61 -4 6 0 12 -3 12 -6 0 -3 10 -6 23 -7 86 -2
193 -31 229 -62 9 -7 21 -11 26 -8 5 3 18 -12 28 -34 28 -57 97 -93 199 -105
27 -3 69 -8 92 -11 45 -6 296 -8 461 -4 l102 2 0 32 c0 21 -3 27 -9 18 -6 -10
-10 -7 -13 11 -3 16 -1 24 6 21 24 -9 87 -10 92 -2 3 5 13 3 22 -4 9 -7 13 -8
9 -2 -4 7 10 11 39 11 27 1 65 11 97 28 29 14 73 28 97 31 25 2 70 6 100 9 30
3 72 10 93 16 l37 10 0 453 c0 396 -2 453 -15 453 -8 0 -15 -4 -15 -8 0 -4
-16 -10 -35 -13 -19 -4 -35 -11 -35 -17 0 -6 -4 -8 -9 -5 -5 4 -34 -4 -65 -15
-61 -24 -98 -20 -75 7 10 12 10 17 0 23 -7 5 -12 11 -12 15 3 22 -1 27 -20 21
-11 -4 -47 -8 -79 -9 -63 -3 -84 8 -92 49 l-4 20 -8 -20z"/>
</g>
</svg>
