<?xml version="1.0" standalone="no"?>
<!DOCTYPE svg PUBLIC "-//W3C//DTD SVG 20010904//EN"
 "http://www.w3.org/TR/2001/REC-SVG-20010904/DTD/svg10.dtd">
<svg version="1.0" xmlns="http://www.w3.org/2000/svg"
 width="320.000000pt" height="320.000000pt" viewBox="0 0 320.000000 320.000000"
 preserveAspectRatio="xMidYMid meet">
<metadata>
Created by potrace 1.11, written by Peter Selinger 2001-2013
</metadata>
<g transform="translate(0.000000,320.000000) scale(0.100000,-0.100000)"
fill="#000000" stroke="none">
<path d="M1 3184 c-1 -23 25 -51 36 -40 3 3 1 6 -5 6 -5 0 -15 12 -20 28 -9
23 -11 24 -11 6z"/>
<path d="M75 3190 c3 -5 13 -10 21 -10 8 0 14 5 14 10 0 6 -9 10 -21 10 -11 0
-17 -4 -14 -10z"/>
<path d="M1513 3170 c-25 -25 -47 -68 -69 -138 -2 -7 -8 -10 -14 -7 -5 3 -10
2 -10 -3 0 -4 -8 -17 -18 -28 -34 -36 -56 -202 -31 -231 9 -10 19 -27 23 -38
6 -16 9 -17 16 -5 6 8 10 31 10 51 0 24 7 43 24 58 23 22 25 22 36 4 6 -10 9
-11 6 -3 -3 8 -9 23 -12 33 -4 11 -13 16 -22 12 -11 -4 -13 0 -7 17 4 13 7 44
6 70 -1 43 1 49 27 62 16 8 35 30 42 48 7 18 20 41 29 52 17 19 79 54 121 67
17 5 0 8 -51 8 -71 1 -77 -1 -106 -29z"/>
<path d="M1852 3190 c87 -26 208 -159 208 -229 0 -19 39 -61 58 -61 19 0 14
83 -8 143 -12 33 -39 73 -70 105 l-50 52 -83 -1 c-58 0 -74 -3 -55 -9z"/>
<path d="M890 3180 c0 -5 5 -10 10 -10 6 0 10 5 10 10 0 6 -4 10 -10 10 -5 0
-10 -4 -10 -10z"/>
<path d="M50 3131 c0 -7 7 -19 15 -27 19 -20 19 -5 0 20 -9 11 -15 14 -15 7z"/>
<path d="M410 3096 c0 -2 8 -10 18 -17 15 -13 16 -12 3 4 -13 16 -21 21 -21
13z"/>
<path d="M5 3080 c-3 -5 1 -10 9 -10 9 0 16 5 16 10 0 6 -4 10 -9 10 -6 0 -13
-4 -16 -10z"/>
<path d="M45 3030 c3 -5 8 -10 11 -10 2 0 4 5 4 10 0 6 -5 10 -11 10 -5 0 -7
-4 -4 -10z"/>
<path d="M670 3026 c0 -2 7 -7 16 -10 8 -3 12 -2 9 4 -6 10 -25 14 -25 6z"/>
<path d="M1538 3023 c-14 -2 -32 -11 -38 -19 -7 -8 -19 -14 -26 -14 -8 0 -14
-3 -14 -6 0 -9 22 -48 36 -61 16 -17 27 -17 18 0 -6 9 -4 9 8 -1 19 -15 61
-25 53 -13 -3 5 2 12 11 15 8 3 13 10 10 15 -8 13 -85 19 -89 7 -2 -6 -6 -2
-10 7 -4 11 1 25 13 37 38 38 160 21 202 -27 14 -15 16 -26 8 -53 -13 -45 -4
-51 14 -10 13 33 13 35 -18 72 -23 28 -43 40 -79 48 -26 5 -53 9 -60 9 -7 -1
-24 -4 -39 -6z"/>
<path d="M1877 2947 c-28 -25 -37 -39 -37 -64 0 -17 4 -34 8 -37 4 -2 8 11 8
31 0 35 22 63 50 63 14 0 26 -38 13 -46 -5 -3 -9 -27 -9 -53 0 -26 -5 -52 -12
-59 -30 -30 60 -67 110 -46 31 12 47 39 18 28 -8 -3 -24 4 -35 15 -12 12 -25
21 -30 21 -8 0 -23 129 -15 141 8 14 84 -14 109 -41 25 -26 26 -32 16 -61 -6
-18 -10 -33 -9 -33 2 -1 17 13 35 31 18 19 26 33 17 33 -7 0 -18 9 -23 19 -10
19 -142 91 -164 91 -7 -1 -29 -15 -50 -33z"/>
<path d="M27 2949 c7 -7 15 -10 18 -7 3 3 -2 9 -12 12 -14 6 -15 5 -6 -5z"/>
<path d="M150 2953 c0 -13 29 -38 35 -31 3 3 -4 13 -15 23 -11 10 -20 13 -20
8z"/>
<path d="M95 2940 c4 -6 11 -8 16 -5 14 9 11 15 -7 15 -8 0 -12 -5 -9 -10z"/>
<path d="M445 2920 c-3 -5 -1 -10 4 -10 6 0 11 5 11 10 0 6 -2 10 -4 10 -3 0
-8 -4 -11 -10z"/>
<path d="M410 2890 c-9 -6 -10 -10 -3 -10 6 0 15 5 18 10 8 12 4 12 -15 0z"/>
<path d="M1720 2851 c-20 -20 -47 -45 -60 -54 -31 -21 -91 -22 -133 -1 l-32
16 22 -22 c43 -45 167 -16 221 51 36 44 22 52 -18 10z"/>
<path d="M1810 2857 c0 -61 45 -125 114 -162 32 -17 36 -17 67 -2 l34 17 -45
0 c-58 0 -98 33 -139 115 -26 51 -31 56 -31 32z"/>
<path d="M1557 2832 c-16 -18 -16 -20 -2 -26 25 -9 61 -7 90 6 33 15 32 24 -2
25 -16 1 -37 4 -48 8 -14 4 -27 0 -38 -13z"/>
<path d="M2080 2783 c-26 -43 -35 -70 -36 -103 0 -25 -4 -56 -8 -68 -7 -22 -6
-23 12 -13 34 18 39 12 9 -12 -20 -15 -26 -27 -22 -40 10 -23 22 -21 31 5 4
13 18 39 31 60 14 20 22 42 18 47 -3 6 -1 11 5 11 6 0 8 4 5 10 -11 18 -15
122 -4 141 5 10 6 19 2 19 -5 0 -24 -26 -43 -57z"/>
<path d="M1336 2744 c-3 -8 -3 -27 0 -41 l7 -26 13 26 c14 25 10 57 -6 57 -4
0 -11 -7 -14 -16z"/>
<path d="M1703 2720 c-3 -11 -10 -20 -16 -20 -6 0 -8 -2 -6 -5 3 -2 20 -1 37
4 25 8 32 7 32 -5 0 -9 11 -14 30 -14 17 0 30 -4 30 -10 0 -5 5 -10 10 -10 11
0 3 49 -11 64 -5 5 -15 4 -25 -5 -14 -11 -18 -11 -29 4 -17 23 -46 22 -52 -3z"/>
<path d="M1367 2687 c-3 -8 -2 -19 3 -26 5 -9 9 -7 13 8 6 23 -8 39 -16 18z"/>
<path d="M1300 2670 c0 -5 5 -10 10 -10 6 0 10 5 10 10 0 6 -4 10 -10 10 -5 0
-10 -4 -10 -10z"/>
<path d="M1685 2635 c-16 -8 -38 -21 -48 -29 -17 -13 -16 -16 23 -54 50 -48
89 -56 147 -31 l43 18 -21 38 c-32 58 -40 65 -66 58 -13 -3 -23 -1 -23 5 0 14
-19 12 -55 -5z"/>
<path d="M1310 2611 c0 -11 29 -35 35 -29 2 2 -4 12 -15 21 -11 9 -20 13 -20
8z"/>
<path d="M1242 2584 c-8 -8 -4 -11 14 -11 13 0 28 5 33 11 6 8 2 11 -14 11
-12 0 -27 -5 -33 -11z"/>
<path d="M1296 2559 c-19 -18 -19 -19 5 -29 24 -10 24 -10 -3 -7 -23 4 -26 2
-18 -14 12 -21 13 -59 2 -44 -4 6 -14 11 -23 13 -12 2 -15 -4 -11 -23 3 -20 1
-24 -12 -19 -11 4 -16 1 -16 -11 0 -11 5 -15 15 -11 10 4 15 -1 15 -14 0 -22
-10 -26 -26 -10 -16 16 -44 1 -44 -23 0 -20 1 -20 13 -2 10 13 16 15 21 6 8
-13 -19 -40 -41 -41 -18 0 -20 -43 -3 -57 13 -11 12 -12 -7 -13 -33 0 -28 -20
5 -21 16 -1 20 -3 10 -6 -20 -5 -25 -23 -6 -23 6 0 3 -9 -7 -20 -18 -20 -18
-21 1 -35 11 -9 13 -14 5 -13 -8 2 -14 -7 -15 -24 -1 -14 3 -24 8 -21 5 4 7
-1 3 -12 -6 -14 -3 -17 17 -13 20 4 24 1 24 -21 0 -22 -2 -23 -13 -8 -17 23
-27 21 -23 -5 2 -14 12 -24 28 -28 22 -5 23 -7 7 -13 -11 -4 -22 -5 -27 -2 -4
3 -10 -4 -13 -15 -3 -11 -1 -18 4 -15 5 3 18 1 29 -5 17 -9 20 -8 20 7 0 14 2
15 9 4 5 -7 15 -10 22 -7 8 4 5 0 -6 -9 -11 -9 -45 -29 -75 -45 -30 -15 -65
-39 -77 -51 -33 -37 -99 -166 -124 -244 -12 -38 -32 -94 -45 -123 -19 -42 -24
-70 -24 -135 0 -45 -5 -125 -11 -177 -11 -88 -10 -99 10 -150 11 -30 31 -71
43 -90 12 -19 23 -45 24 -58 1 -12 10 -29 19 -38 11 -11 14 -25 10 -45 -4 -19
-3 -29 5 -29 6 0 10 -6 9 -12 -3 -28 2 -49 10 -43 9 5 22 -70 25 -135 1 -17 6
-25 19 -24 11 1 17 -5 17 -20 0 -13 3 -26 7 -30 31 -31 53 -191 53 -378 l0
-128 699 0 c622 0 700 2 705 16 3 8 2 12 -4 9 -5 -3 -12 11 -16 32 -4 21 -18
60 -31 86 -13 26 -21 52 -18 57 3 5 1 11 -4 14 -5 4 -19 37 -32 74 -26 78 -86
214 -98 222 -12 7 -30 98 -24 121 4 14 12 19 24 16 23 -6 43 17 34 40 -3 10
-8 56 -11 101 -2 46 -9 92 -14 102 -6 10 -10 28 -10 38 0 11 -14 62 -30 113
-17 52 -32 110 -34 130 -3 38 -40 124 -63 147 -7 7 -14 23 -14 35 -3 59 0 164
6 180 5 12 2 17 -9 17 -9 0 -15 -3 -15 -7 5 -32 -2 -55 -16 -49 -8 3 -26 1
-40 -4 -27 -10 -25 -14 -40 100 -9 72 -26 111 -42 98 -9 -7 -13 -7 -13 1 0 6
-9 11 -20 11 -15 0 -20 -7 -20 -28 0 -15 -4 -32 -9 -37 -6 -6 -6 -28 -1 -55
12 -61 12 -118 0 -125 -6 -4 -38 3 -73 15 -134 47 -304 63 -427 41 -25 -5 -97
-18 -160 -30 -63 -11 -155 -25 -204 -31 -49 -5 -107 -18 -128 -29 -34 -17 -38
-17 -34 -2 3 9 8 34 11 56 7 40 161 364 180 377 5 4 19 5 30 2 16 -4 40 15
105 80 46 47 87 91 91 98 10 19 58 237 63 288 3 25 5 46 5 48 1 1 10 -7 21
-18 25 -25 41 -65 34 -84 -3 -8 -1 -17 5 -21 6 -3 11 1 11 10 0 9 5 13 10 10
6 -4 7 -11 4 -17 -4 -6 2 -6 15 1 11 7 21 8 21 2 0 -5 11 -12 25 -15 14 -4 25
-11 25 -16 0 -6 7 -10 15 -10 8 0 15 -4 15 -10 0 -5 10 -10 22 -10 25 0 138
38 152 51 20 18 24 7 19 -52 -5 -51 -3 -65 15 -89 12 -15 27 -50 33 -77 7 -26
15 -52 19 -58 4 -5 22 -67 40 -137 l33 -126 36 5 c20 3 37 6 38 7 5 4 -47 215
-65 267 l-20 57 30 6 c17 3 45 6 63 6 20 0 35 6 39 15 6 18 -23 17 -37 0 -4
-5 -5 2 -1 18 5 23 4 26 -12 21 -15 -4 -16 -4 -5 4 9 6 11 19 7 36 -6 26 7 37
18 14 3 -7 3 -2 0 11 -4 13 -1 27 6 31 8 5 7 11 -4 23 -23 22 -20 28 10 21 24
-6 25 -5 15 15 -7 11 -9 21 -5 21 3 0 1 7 -6 15 -10 12 -16 13 -29 3 -9 -8 -8
-3 4 11 17 21 18 24 3 18 -10 -4 -18 -2 -18 3 0 6 4 10 8 10 4 0 9 12 10 28 1
26 1 26 -13 8 -9 -12 -15 -15 -15 -7 0 14 -37 51 -51 51 -4 0 -21 -14 -38 -30
l-30 -31 -123 3 c-116 3 -127 5 -190 36 -37 17 -70 32 -75 32 -12 1 -83 69
-83 80 0 6 -6 10 -14 10 -8 0 -13 8 -12 17 1 14 -9 18 -43 21 -39 3 -43 1 -31
-13 11 -13 10 -15 -3 -9 -9 3 -17 14 -19 23 -3 17 -4 17 -22 0z m-86 -238 c0
-5 -7 -14 -15 -21 -16 -14 -18 -10 -9 14 6 17 24 22 24 7z m865 -51 c3 -5 -1
-10 -9 -10 -9 0 -16 5 -16 10 0 6 4 10 9 10 6 0 13 -4 16 -10z m-868 -99 c0
-25 -2 -27 -14 -15 -12 11 -12 16 -1 28 7 9 13 15 14 16 0 0 1 -13 1 -29z m13
-61 c0 -5 -2 -10 -4 -10 -3 0 -8 5 -11 10 -3 6 -1 10 4 10 6 0 11 -4 11 -10z
m900 -719 c14 -27 13 -64 -2 -58 -7 2 -12 14 -10 27 1 12 -3 29 -9 36 -8 10
-8 14 -1 14 6 0 16 -9 22 -19z m-251 -683 c-31 -45 -33 -46 -24 -18 9 30 24
50 37 50 5 0 -1 -15 -13 -32z m61 -62 c0 -23 37 -29 62 -12 25 18 38 20 38 8
0 -19 -93 -74 -180 -107 -50 -19 -97 -35 -103 -35 -20 0 44 35 111 61 34 13
62 28 62 33 0 4 -7 6 -15 3 -14 -6 -48 46 -37 57 12 13 62 6 62 -8z m-130 -6
c0 -5 -30 -24 -66 -41 -77 -38 -148 -44 -168 -16 -7 9 -20 17 -29 17 -9 0 -19
5 -22 10 -3 6 -13 10 -21 10 -8 0 -12 -4 -9 -10 9 -15 -8 -12 -31 5 -17 13 -6
14 106 16 101 1 224 10 238 18 1 0 2 -3 2 -9z m-690 -15 c7 -9 8 -15 2 -15 -5
0 -12 7 -16 15 -3 8 -4 15 -2 15 2 0 9 -7 16 -15z m220 -39 c0 -7 3 -6 9 2 8
13 10 9 21 -36 1 -4 6 -12 11 -18 13 -15 -78 -6 -111 12 l-25 13 30 1 c23 0
27 2 15 10 -13 9 -13 12 3 25 20 15 47 10 47 -9z m792 -63 c31 -27 21 -47 -45
-91 -34 -23 -71 -50 -82 -60 -36 -33 -318 -219 -381 -250 -92 -46 -236 -53
-249 -12 -4 11 -11 20 -17 20 -5 0 -8 6 -5 13 2 6 0 20 -4 29 -7 13 -4 20 11
28 11 6 24 8 29 5 5 -3 12 1 14 7 4 9 8 10 14 2 4 -6 20 -14 34 -17 27 -7 49
9 61 43 4 10 47 25 124 44 125 30 215 66 299 119 65 41 148 106 158 123 10 18
16 18 39 -3z m-498 -129 c31 -12 15 -23 -53 -38 -97 -22 -98 -22 -97 20 l1 36
67 -6 c36 -3 73 -9 82 -12z m87 0 c-25 -8 -47 -12 -49 -9 -8 7 40 24 68 23 18
0 12 -4 -19 -14z m-302 -20 c11 -15 18 -31 15 -36 -7 -11 -130 -3 -127 8 1 5
-5 16 -13 26 -14 15 -14 17 3 21 10 3 37 5 60 6 34 1 45 -4 62 -25z"/>
<path d="M2075 2500 c-3 -6 1 -13 10 -16 21 -9 26 -2 10 13 -9 8 -16 9 -20 3z"/>
<path d="M147 2489 c7 -7 15 -10 18 -7 3 3 -2 9 -12 12 -14 6 -15 5 -6 -5z"/>
<path d="M1215 2490 c-3 -5 -2 -10 4 -10 5 0 13 5 16 10 3 6 2 10 -4 10 -5 0
-13 -4 -16 -10z"/>
<path d="M2050 2470 c0 -5 5 -10 11 -10 5 0 7 5 4 10 -3 6 -8 10 -11 10 -2 0
-4 -4 -4 -10z"/>
<path d="M2083 2430 c1 -11 5 -20 9 -20 11 0 10 28 -1 35 -6 3 -9 -4 -8 -15z"/>
<path d="M2043 2425 c-15 -16 -16 -25 -5 -25 4 0 13 9 20 20 14 23 3 26 -15 5z"/>
<path d="M1130 2350 c0 -5 9 -10 20 -10 11 0 20 5 20 10 0 6 -9 10 -20 10 -11
0 -20 -4 -20 -10z"/>
<path d="M2080 2339 c0 -5 5 -7 10 -4 6 3 10 8 10 11 0 2 -4 4 -10 4 -5 0 -10
-5 -10 -11z"/>
<path d="M976 2325 c4 -8 13 -15 21 -15 13 0 13 3 3 15 -7 8 -16 15 -21 15 -5
0 -6 -7 -3 -15z"/>
<path d="M1035 2320 c3 -5 11 -10 16 -10 6 0 7 5 4 10 -3 6 -11 10 -16 10 -6
0 -7 -4 -4 -10z"/>
<path d="M1120 2310 c0 -5 5 -10 10 -10 6 0 10 5 10 10 0 6 -4 10 -10 10 -5 0
-10 -4 -10 -10z"/>
<path d="M1110 2270 c0 -5 5 -10 10 -10 6 0 10 5 10 10 0 6 -4 10 -10 10 -5 0
-10 -4 -10 -10z"/>
<path d="M970 2230 c0 -5 5 -10 11 -10 5 0 7 5 4 10 -3 6 -8 10 -11 10 -2 0
-4 -4 -4 -10z"/>
<path d="M1120 2219 c0 -5 5 -7 10 -4 6 3 10 8 10 11 0 2 -4 4 -10 4 -5 0 -10
-5 -10 -11z"/>
<path d="M2110 2219 c0 -5 5 -7 10 -4 6 3 10 8 10 11 0 2 -4 4 -10 4 -5 0 -10
-5 -10 -11z"/>
<path d="M2085 2190 c-3 -5 -1 -10 4 -10 6 0 11 5 11 10 0 6 -2 10 -4 10 -3 0
-8 -4 -11 -10z"/>
<path d="M1130 2181 c0 -7 -9 -9 -26 -5 -19 5 -25 4 -20 -5 4 -6 16 -11 26
-11 20 0 36 17 26 27 -3 4 -6 1 -6 -6z"/>
<path d="M1010 2139 c0 -5 5 -7 10 -4 6 3 10 8 10 11 0 2 -4 4 -10 4 -5 0 -10
-5 -10 -11z"/>
<path d="M490 2132 c0 -12 19 -26 26 -19 2 2 -2 10 -11 17 -9 8 -15 8 -15 2z"/>
<path d="M2075 2100 c-3 -5 -1 -10 4 -10 6 0 11 5 11 10 0 6 -2 10 -4 10 -3 0
-8 -4 -11 -10z"/>
<path d="M1099 2074 c-6 -8 -9 -17 -6 -21 4 -3 9 2 13 11 6 15 8 14 24 -4 9
-11 20 -17 24 -13 11 11 6 20 -18 31 -19 9 -27 8 -37 -4z"/>
<path d="M1411 2064 c0 -11 3 -14 6 -6 3 7 2 16 -1 19 -3 4 -6 -2 -5 -13z"/>
<path d="M1040 2061 c0 -5 9 -7 20 -4 11 3 20 7 20 9 0 2 -9 4 -20 4 -11 0
-20 -4 -20 -9z"/>
<path d="M1412 2010 c0 -19 2 -27 5 -17 2 9 2 25 0 35 -3 9 -5 1 -5 -18z"/>
<path d="M1140 2010 c0 -5 5 -10 11 -10 5 0 7 5 4 10 -3 6 -8 10 -11 10 -2 0
-4 -4 -4 -10z"/>
<path d="M1040 1980 c0 -5 5 -10 10 -10 6 0 10 5 10 10 0 6 -4 10 -10 10 -5 0
-10 -4 -10 -10z"/>
<path d="M1120 1975 c7 -8 16 -15 21 -15 5 0 6 7 3 15 -4 8 -13 15 -21 15 -13
0 -13 -3 -3 -15z"/>
<path d="M335 1940 c3 -5 8 -10 11 -10 2 0 4 5 4 10 0 6 -5 10 -11 10 -5 0 -7
-4 -4 -10z"/>
<path d="M1110 1946 c0 -2 7 -7 16 -10 8 -3 12 -2 9 4 -6 10 -25 14 -25 6z"/>
<path d="M1150 1946 c0 -9 30 -14 35 -6 4 6 -3 10 -14 10 -12 0 -21 -2 -21 -4z"/>
<path d="M752 1685 c1 -17 -5 -41 -12 -54 -11 -22 -11 -23 6 -17 18 6 18 6 1
-8 -13 -10 -17 -21 -12 -37 6 -17 4 -21 -7 -16 -12 4 -15 -3 -13 -33 2 -30 -2
-41 -19 -49 -11 -7 -14 -10 -5 -7 10 2 19 -6 26 -25 9 -24 8 -31 -5 -39 -14
-8 -14 -10 -2 -11 8 -1 19 -1 24 0 5 1 3 -6 -5 -15 -11 -13 -11 -18 -1 -21 6
-3 12 -9 12 -14 0 -5 -3 -8 -7 -6 -12 3 -15 -6 -7 -27 4 -11 2 -21 -6 -26 -9
-6 -9 -10 4 -17 15 -8 15 -12 -5 -36 -13 -18 -16 -27 -7 -25 7 2 12 -3 10 -10
-1 -6 1 -11 5 -11 21 3 22 -3 3 -23 -11 -12 -20 -26 -20 -32 0 -6 7 0 16 12 8
12 20 22 27 22 8 0 8 -3 -1 -12 -14 -14 -16 -32 -3 -24 5 3 12 -1 15 -10 5
-13 1 -15 -21 -9 -22 5 -25 4 -15 -8 14 -17 6 -27 -21 -27 -15 0 -17 -3 -8
-13 6 -8 8 -17 4 -20 -3 -4 -1 -7 6 -7 7 0 15 9 18 19 5 21 29 35 44 25 11 -6
12 -25 1 -22 -4 2 -20 -7 -36 -19 -31 -25 -28 -30 6 -12 15 8 19 8 13 -1 -4
-7 -1 -10 11 -8 15 2 19 -4 20 -29 1 -30 0 -32 -30 -26 -29 5 -30 5 -11 -10
11 -8 24 -13 29 -10 5 4 7 -2 4 -13 -13 -46 -13 -49 5 -47 14 1 16 -3 11 -15
-4 -10 -7 -24 -8 -33 0 -11 -7 -14 -23 -11 -13 2 -23 -1 -23 -7 0 -6 3 -10 8
-9 9 3 42 -21 60 -44 11 -13 11 -20 0 -37 -7 -12 -17 -21 -22 -21 -4 0 -3 7 4
15 10 12 10 15 -4 15 -9 0 -16 -7 -16 -16 0 -11 -6 -15 -19 -11 -12 3 -22 -1
-25 -10 -9 -24 -8 -25 27 -18 30 6 31 5 13 -10 -11 -8 -29 -16 -40 -16 -12 -1
-5 -5 14 -9 l35 -6 -29 -9 c-20 -5 -36 -3 -56 9 -32 19 -40 20 -40 6 0 -5 9
-10 19 -10 23 0 37 -30 19 -42 -10 -6 -9 -11 5 -19 24 -14 21 -28 -10 -40 -17
-7 -23 -13 -15 -16 7 -3 19 1 27 7 12 10 15 10 15 -2 0 -19 47 -21 54 -3 3 8
15 15 26 15 20 0 20 -1 5 -31 -9 -16 -23 -33 -31 -36 -22 -8 -17 -23 9 -23 20
-1 18 -4 -18 -36 -22 -20 -31 -33 -21 -30 11 4 23 1 28 -6 6 -10 8 -10 8 2 0
13 1 13 10 0 16 -24 13 -26 -44 -25 -30 0 -52 -3 -49 -8 3 -4 -3 -17 -13 -28
-16 -18 -16 -19 -1 -13 9 3 17 10 17 15 0 5 7 9 16 9 10 0 14 -6 10 -15 -3 -8
-1 -15 5 -15 6 0 13 9 16 19 3 11 10 22 17 24 16 6 52 -21 41 -30 -4 -5 -10
-2 -12 5 -5 14 -33 17 -33 3 0 -5 6 -11 13 -14 8 -3 6 -9 -8 -20 -11 -8 -24
-13 -30 -10 -5 3 -5 0 1 -6 9 -9 17 -10 31 -3 26 15 50 0 28 -18 -20 -17 -19
-31 2 -23 11 4 14 3 9 -5 -4 -7 -17 -10 -32 -6 -19 5 -24 2 -24 -12 0 -9 3
-15 6 -11 3 3 20 0 37 -6 32 -11 32 -11 7 -17 -14 -3 -25 -10 -25 -15 -1 -22
-17 -36 -29 -26 -10 8 -18 5 -32 -10 -19 -21 -19 -22 4 -15 12 4 22 3 22 -3 0
-5 -8 -12 -17 -15 -10 -2 0 -2 22 0 38 5 39 4 21 -10 -11 -9 -27 -16 -35 -16
-16 -1 -61 -33 -61 -44 0 -12 28 -6 40 9 7 8 17 15 22 15 6 0 6 -6 -1 -14 -10
-12 7 -14 117 -15 l128 -1 -3 62 c-1 35 -7 82 -13 106 -25 103 -30 134 -44
247 -13 99 -29 466 -26 594 0 18 -5 39 -10 46 -6 7 -10 30 -10 52 2 46 -28
242 -40 264 -5 9 -11 54 -15 100 -7 87 -30 202 -45 229 -6 11 -8 7 -8 -15z
m68 -865 c0 -5 -4 -10 -10 -10 -5 0 -10 5 -10 10 0 6 5 10 10 10 6 0 10 -4 10
-10z m-8 -142 c-7 -7 -12 -8 -12 -2 0 14 12 26 19 19 2 -3 -1 -11 -7 -17z
m-12 -58 c0 -5 -5 -10 -11 -10 -5 0 -7 5 -4 10 3 6 8 10 11 10 2 0 4 -4 4 -10z
m-35 -20 c-3 -5 -15 -10 -27 -10 -14 0 -18 -5 -14 -15 3 -8 1 -15 -3 -15 -15
0 -20 27 -8 39 14 14 61 15 52 1z m30 -20 c3 -6 -4 -10 -17 -11 -13 0 -17 -3
-10 -6 17 -7 15 -23 -3 -23 -8 0 -15 -4 -15 -10 0 -5 -7 -7 -16 -3 -15 5 -15
8 -2 17 8 6 17 19 21 29 7 19 32 23 42 7z m5 -120 c0 -5 -4 -10 -10 -10 -5 0
-10 5 -10 10 0 6 5 10 10 10 6 0 10 -4 10 -10z m30 -24 c0 -3 -4 -8 -10 -11
-5 -3 -10 -1 -10 4 0 6 5 11 10 11 6 0 10 -2 10 -4z m-30 -26 c0 -5 -5 -10
-11 -10 -5 0 -7 5 -4 10 3 6 8 10 11 10 2 0 4 -4 4 -10z m30 -14 c0 -2 -8 -10
-17 -17 -16 -13 -17 -12 -4 4 13 16 21 21 21 13z m-30 -302 c0 -2 -7 -4 -15
-4 -8 0 -15 4 -15 10 0 5 7 7 15 4 8 -4 15 -8 15 -10z"/>
<path d="M2480 1280 c0 -5 5 -10 11 -10 5 0 7 5 4 10 -3 6 -8 10 -11 10 -2 0
-4 -4 -4 -10z"/>
<path d="M685 1150 c-3 -5 -2 -10 4 -10 5 0 13 5 16 10 3 6 2 10 -4 10 -5 0
-13 -4 -16 -10z"/>
<path d="M425 1020 c-3 -5 -2 -10 4 -10 5 0 13 5 16 10 3 6 2 10 -4 10 -5 0
-13 -4 -16 -10z"/>
<path d="M750 985 c7 -8 16 -15 21 -15 5 0 9 7 9 15 0 9 -9 15 -21 15 -18 0
-19 -2 -9 -15z"/>
<path d="M637 954 c-8 -8 1 -24 12 -24 4 0 8 7 8 15 0 16 -9 20 -20 9z"/>
<path d="M710 930 c8 -5 20 -10 25 -10 6 0 3 5 -5 10 -8 5 -19 10 -25 10 -5 0
-3 -5 5 -10z"/>
<path d="M676 904 c-4 -10 -1 -14 6 -12 15 5 23 28 10 28 -5 0 -13 -7 -16 -16z"/>
<path d="M731 901 c-8 -5 -9 -11 -3 -15 5 -3 15 1 22 9 14 16 3 20 -19 6z"/>
<path d="M500 869 c0 -5 5 -7 10 -4 6 3 10 8 10 11 0 2 -4 4 -10 4 -5 0 -10
-5 -10 -11z"/>
<path d="M678 863 c7 -3 16 -2 19 1 4 3 -2 6 -13 5 -11 0 -14 -3 -6 -6z"/>
<path d="M745 860 c3 -5 13 -10 21 -10 8 0 12 5 9 10 -3 6 -13 10 -21 10 -8 0
-12 -4 -9 -10z"/>
<path d="M545 830 c-3 -5 -2 -10 4 -10 5 0 13 5 16 10 3 6 2 10 -4 10 -5 0
-13 -4 -16 -10z"/>
<path d="M650 831 c0 -5 7 -11 15 -15 8 -3 15 -1 15 3 0 5 -7 11 -15 15 -8 3
-15 1 -15 -3z"/>
<path d="M976 815 c4 -8 8 -15 10 -15 2 0 4 7 4 15 0 8 -4 15 -10 15 -5 0 -7
-7 -4 -15z"/>
<path d="M695 790 c-8 -13 3 -30 18 -29 9 0 9 2 0 5 -7 3 -9 12 -6 20 6 16 -3
19 -12 4z"/>
<path d="M744 775 c22 -17 36 -19 36 -6 0 10 -24 21 -43 21 -7 0 -3 -7 7 -15z"/>
<path d="M768 753 c-10 -2 -18 -9 -18 -14 0 -13 13 -11 36 6 19 14 14 17 -18
8z"/>
<path d="M620 703 c-13 -15 -12 -16 4 -10 10 4 20 7 22 7 2 0 4 5 4 10 0 15
-13 12 -30 -7z"/>
<path d="M2750 665 c7 -8 17 -15 22 -15 6 0 5 7 -2 15 -7 8 -17 15 -22 15 -6
0 -5 -7 2 -15z"/>
<path d="M545 549 c-4 -6 -5 -12 -2 -15 2 -3 7 2 10 11 7 17 1 20 -8 4z"/>
<path d="M605 520 c-3 -5 -2 -10 4 -10 5 0 13 5 16 10 3 6 2 10 -4 10 -5 0
-13 -4 -16 -10z"/>
<path d="M766 494 c-5 -14 -4 -15 9 -4 17 14 19 20 6 20 -5 0 -12 -7 -15 -16z"/>
<path d="M615 490 c-3 -5 -1 -10 4 -10 6 0 11 5 11 10 0 6 -2 10 -4 10 -3 0
-8 -4 -11 -10z"/>
<path d="M318 483 c7 -3 16 -2 19 1 4 3 -2 6 -13 5 -11 0 -14 -3 -6 -6z"/>
<path d="M650 469 c0 -5 5 -7 10 -4 6 3 10 8 10 11 0 2 -4 4 -10 4 -5 0 -10
-5 -10 -11z"/>
<path d="M706 471 c-3 -4 6 -6 19 -3 14 2 25 6 25 8 0 8 -39 4 -44 -5z"/>
<path d="M690 420 c-10 -19 -10 -20 9 -8 22 13 28 28 11 28 -5 0 -14 -9 -20
-20z"/>
<path d="M615 420 c-3 -6 1 -7 9 -4 18 7 21 14 7 14 -6 0 -13 -4 -16 -10z"/>
<path d="M735 420 c3 -5 8 -10 11 -10 2 0 4 5 4 10 0 6 -5 10 -11 10 -5 0 -7
-4 -4 -10z"/>
<path d="M680 370 c-9 -6 -10 -10 -3 -10 6 0 15 5 18 10 8 12 4 12 -15 0z"/>
<path d="M265 360 c-3 -5 -2 -10 4 -10 5 0 13 5 16 10 3 6 2 10 -4 10 -5 0
-13 -4 -16 -10z"/>
<path d="M417 353 c-10 -9 -9 -23 1 -23 5 0 9 7 9 15 0 17 -1 18 -10 8z"/>
<path d="M2825 290 c3 -5 8 -10 11 -10 2 0 4 5 4 10 0 6 -5 10 -11 10 -5 0 -7
-4 -4 -10z"/>
<path d="M625 250 c-3 -5 -1 -10 4 -10 6 0 11 5 11 10 0 6 -2 10 -4 10 -3 0
-8 -4 -11 -10z"/>
<path d="M707 237 c-6 -17 39 -21 50 -4 4 6 0 8 -9 4 -9 -3 -20 -1 -25 4 -7 7
-12 5 -16 -4z"/>
<path d="M680 190 c0 -5 12 -11 28 -11 16 -1 20 -3 10 -6 -18 -4 -25 -22 -10
-24 4 0 15 -2 24 -4 9 -2 22 3 29 11 6 8 9 15 5 15 -13 3 -22 6 -49 17 -34 15
-37 15 -37 2z"/>
<path d="M300 139 c0 -5 5 -7 10 -4 6 3 10 8 10 11 0 2 -4 4 -10 4 -5 0 -10
-5 -10 -11z"/>
<path d="M497 69 c7 -7 15 -10 18 -7 3 3 -2 9 -12 12 -14 6 -15 5 -6 -5z"/>
<path d="M600 20 c-8 -5 -12 -12 -9 -15 4 -3 12 1 19 10 14 17 11 19 -10 5z"/>
<path d="M450 10 c0 -5 5 -10 11 -10 5 0 7 5 4 10 -3 6 -8 10 -11 10 -2 0 -4
-4 -4 -10z"/>
<path d="M538 3 c7 -3 16 -2 19 1 4 3 -2 6 -13 5 -11 0 -14 -3 -6 -6z"/>
</g>
</svg>
