<?xml version="1.0" standalone="no"?>
<!DOCTYPE svg PUBLIC "-//W3C//DTD SVG 20010904//EN"
 "http://www.w3.org/TR/2001/REC-SVG-20010904/DTD/svg10.dtd">
<svg version="1.0" xmlns="http://www.w3.org/2000/svg"
 width="444.000000pt" height="444.000000pt" viewBox="0 0 444.000000 444.000000"
 preserveAspectRatio="xMidYMid meet">
<metadata>
Created by potrace 1.11, written by Peter Selinger 2001-2013
</metadata>
<g transform="translate(0.000000,444.000000) scale(0.100000,-0.100000)"
fill="#000000" stroke="none">
<path d="M2578 4428 c-4 -10 -132 -13 -574 -13 -554 -1 -570 -2 -615 -22 -110
-49 -180 -153 -184 -271 -2 -37 2 -72 7 -79 6 -7 6 -18 0 -30 -5 -10 -9 -57
-8 -106 1 -61 -3 -87 -11 -87 -8 0 -13 -30 -15 -91 -2 -72 0 -94 12 -103 20
-15 21 -203 1 -216 -17 -10 -16 -141 0 -151 17 -10 17 -187 1 -211 -18 -25
-17 -139 0 -153 10 -8 13 -251 12 -1208 0 -659 3 -1200 8 -1203 4 -3 4 -13 -1
-23 -6 -10 -8 -47 -7 -83 6 -116 63 -207 164 -260 23 -13 42 -30 42 -38 0 -13
1 -13 10 0 9 13 11 13 20 0 7 -11 10 -11 10 -2 0 8 5 10 13 5 6 -4 80 -8 162
-9 83 -1 155 -2 160 -4 6 -1 12 -1 15 0 14 6 212 4 217 -3 2 -4 10 -4 16 0 20
12 97 12 90 -1 -5 -8 -3 -8 8 0 15 11 118 12 136 1 7 -4 14 -4 17 1 6 10 168
8 186 -3 8 -5 11 -4 6 3 -7 12 82 11 102 -1 6 -4 13 -3 17 3 4 7 13 6 27 -1
11 -6 18 -7 14 -1 -8 13 87 10 96 -3 5 -7 8 -7 8 0 0 6 51 10 134 10 78 0 132
4 128 9 -3 5 5 7 16 4 12 -4 24 -2 27 2 3 5 28 21 55 36 50 27 92 72 126 134
18 34 19 87 19 1985 l0 1950 -23 48 c-50 105 -152 168 -277 171 -16 0 -36 6
-43 13 -19 18 -319 18 -324 1z"/>
</g>
</svg>
