<?xml version="1.0" standalone="no"?>
<!DOCTYPE svg PUBLIC "-//W3C//DTD SVG 20010904//EN"
 "http://www.w3.org/TR/2001/REC-SVG-20010904/DTD/svg10.dtd">
<svg version="1.0" xmlns="http://www.w3.org/2000/svg"
 width="392.000000pt" height="392.000000pt" viewBox="0 0 392.000000 392.000000"
 preserveAspectRatio="xMidYMid meet">
<metadata>
Created by potrace 1.11, written by Peter Selinger 2001-2013
</metadata>
<g transform="translate(0.000000,392.000000) scale(0.100000,-0.100000)"
fill="#000000" stroke="none">
<path d="M2570 3591 c-113 -42 -214 -81 -225 -86 -11 -4 -23 -9 -27 -10 -5 -2
-11 -4 -15 -5 -5 -1 -11 -2 -15 -1 -5 0 -8 -3 -8 -9 0 -6 -3 -9 -7 -9 -17 3
-73 -14 -73 -22 0 -5 -3 -8 -7 -8 -5 1 -10 0 -13 -1 -3 -1 -12 -3 -20 -5 -23
-5 -84 -29 -90 -35 -3 -3 -12 -7 -20 -9 -8 -2 -19 -4 -25 -6 -5 -1 -23 -8 -40
-15 -16 -7 -37 -14 -45 -16 -8 -2 -23 -7 -35 -13 -30 -15 -237 -92 -259 -97
-11 -2 -24 -8 -30 -14 -5 -5 -19 -10 -29 -10 -17 0 -19 -5 -13 -39 3 -22 8
-46 11 -54 5 -10 -15 -21 -72 -42 -43 -15 -83 -32 -89 -36 -6 -5 -14 -6 -17
-2 -4 3 -7 1 -7 -5 0 -7 -3 -11 -7 -11 -21 4 -72 -15 -66 -24 3 -5 2 -7 -4 -4
-5 3 -92 -27 -194 -67 -194 -77 -209 -83 -222 -85 -4 0 -21 -8 -37 -16 -17 -9
-30 -12 -30 -8 0 5 -4 3 -8 -4 -4 -6 -20 -14 -36 -17 -16 -3 -32 -10 -36 -16
-4 -7 -9 -11 -11 -9 -2 1 -15 -1 -29 -5 -14 -5 -28 -8 -32 -7 -5 1 -8 -3 -8
-7 0 -4 -10 -8 -22 -9 -11 -1 -25 -8 -29 -15 -5 -7 -9 -10 -9 -6 0 6 -88 -27
-98 -37 -3 -3 232 -281 258 -305 3 -3 29 -33 58 -67 l54 -63 -156 -77 c-86
-43 -186 -93 -223 -111 -38 -18 -75 -36 -83 -41 -8 -5 -95 -49 -192 -97 -164
-81 -226 -120 -229 -144 -1 -6 -2 -16 -3 -22 -1 -7 1 -26 6 -43 4 -16 9 -43
12 -59 3 -16 14 -39 26 -51 l20 -22 -22 -12 c-22 -11 -6 -8 27 5 10 4 15 0 16
-12 0 -11 3 -14 6 -7 3 10 8 9 20 -2 8 -8 22 -15 31 -15 23 -1 55 -26 48 -39
-4 -5 -1 -13 5 -17 7 -4 9 -3 5 4 -11 18 14 25 33 8 10 -9 21 -13 26 -9 4 5 5
-1 1 -11 -5 -15 -4 -17 7 -8 10 9 16 7 27 -8 7 -10 21 -17 31 -15 10 2 23 -3
30 -11 6 -8 17 -14 25 -14 7 0 18 -8 23 -19 6 -10 20 -21 31 -24 13 -3 18 -1
13 5 -7 13 14 2 40 -20 9 -8 17 -11 17 -7 0 5 6 0 14 -11 11 -15 12 -22 3 -34
-10 -13 -10 -13 5 -1 10 7 15 17 12 22 -3 5 0 9 6 9 6 0 15 -10 20 -22 5 -13
9 -17 9 -11 1 10 7 10 27 1 15 -7 24 -18 21 -27 -3 -11 4 -16 20 -17 22 -2 23
-1 6 12 -12 10 -6 9 20 -3 20 -9 37 -22 37 -29 0 -14 37 -30 58 -25 8 1 21 -4
30 -13 10 -8 21 -15 25 -15 18 0 96 -45 91 -52 -3 -5 2 -6 12 -2 13 5 15 2 9
-18 -7 -22 -6 -23 7 -5 13 17 15 17 31 1 10 -9 14 -21 11 -27 -4 -7 -2 -8 5
-4 6 4 8 13 4 19 -4 7 0 6 10 -2 9 -7 17 -10 17 -6 0 5 9 -2 20 -15 11 -12 17
-27 14 -31 -3 -5 0 -9 6 -9 7 0 9 9 5 23 -3 12 -3 17 2 11 4 -6 16 -13 26 -17
9 -3 18 -17 18 -29 1 -17 2 -18 6 -5 5 20 19 22 29 5 5 -7 3 -8 -6 -3 -9 5
-11 4 -6 -4 5 -8 12 -9 20 -2 8 7 22 1 45 -20 36 -31 49 -37 35 -16 -5 7 -2 6
6 -3 9 -9 20 -15 26 -13 6 2 21 -6 33 -17 13 -11 27 -17 31 -15 4 3 14 -3 21
-12 12 -14 12 -16 0 -8 -10 5 -12 4 -7 -4 6 -9 11 -9 21 -1 9 7 16 6 25 -5 7
-9 19 -14 27 -11 7 3 13 -1 13 -10 0 -8 5 -12 10 -9 6 3 10 1 10 -5 0 -7 7
-10 15 -6 15 5 40 -26 29 -37 -8 -8 19 -3 34 6 7 5 14 2 18 -8 4 -8 14 -14 23
-13 10 2 15 -3 15 -15 -2 -13 1 -15 11 -7 9 8 14 8 17 0 2 -6 13 -12 25 -13
18 -1 22 -6 18 -25 -4 -23 -3 -24 15 -7 12 11 20 13 20 7 0 -7 5 -12 11 -12 7
0 18 -8 26 -17 8 -10 11 -12 7 -4 -5 11 -3 13 10 8 10 -4 20 -7 22 -7 2 0 4
-5 4 -11 0 -5 -4 -7 -10 -4 -6 4 -7 -1 -3 -11 5 -15 7 -15 16 2 10 17 11 17
17 -1 3 -10 14 -19 23 -21 10 -1 14 2 11 8 -3 5 7 2 22 -6 89 -51 115 -65 122
-67 30 -7 53 -21 58 -33 3 -8 12 -12 19 -10 7 3 23 -5 35 -18 13 -13 20 -16
16 -8 -5 9 -2 8 7 -2 8 -10 20 -18 28 -18 22 0 139 -63 133 -72 -3 -4 3 -5 12
-1 11 4 22 -1 30 -12 8 -10 14 -16 14 -12 0 10 73 -24 88 -42 9 -11 11 -11 6
-1 -7 12 -5 13 8 3 8 -7 18 -10 21 -6 4 3 7 1 7 -5 0 -6 7 -9 15 -6 11 5 13 2
9 -10 -3 -9 -1 -16 5 -16 6 0 11 7 11 16 0 13 3 14 15 4 8 -6 19 -9 24 -6 5 4
13 2 16 -4 4 -6 15 -8 26 -5 11 4 19 2 19 -4 0 -6 5 -11 11 -11 5 0 8 3 5 8
-2 4 21 7 52 6 32 0 63 4 71 10 11 8 13 8 8 0 -4 -7 0 -14 8 -17 10 -4 12 -1
8 10 -4 11 -2 14 5 9 7 -4 12 -2 12 3 0 6 5 11 10 11 7 0 7 -6 0 -19 -7 -14
-7 -22 2 -27 6 -4 8 -3 5 3 -4 6 2 22 14 34 11 13 18 19 15 14 -2 -6 4 -12 15
-12 10 -1 19 3 19 8 0 6 -4 7 -10 4 -5 -3 -10 -2 -10 3 0 5 10 12 23 16 32 8
39 7 32 -4 -10 -16 1 -11 16 7 10 11 10 14 2 9 -8 -4 -13 -2 -13 5 0 7 11 10
33 6 17 -3 26 -3 19 0 -6 2 -9 9 -6 14 3 6 12 5 22 -3 13 -11 15 -10 9 5 -5
14 -2 16 18 11 16 -4 25 -2 25 6 0 6 -5 8 -12 4 -7 -4 -8 -3 -4 5 4 6 11 9 16
6 5 -3 11 -1 15 5 3 5 11 10 17 10 7 0 6 -5 -1 -14 -8 -10 -9 -16 -1 -21 6 -4
9 -3 8 2 -4 15 21 51 42 56 17 4 18 2 10 -13 -7 -13 -7 -21 0 -25 6 -4 9 -3 8
2 -4 14 13 53 23 53 6 0 7 -5 3 -12 -4 -6 -3 -8 4 -4 5 3 13 0 16 -6 3 -7 3
-1 0 15 -4 17 -2 27 6 27 6 0 9 -4 6 -8 -3 -5 1 -9 9 -9 8 0 12 3 10 7 -2 3 5
11 15 18 16 9 21 9 28 -4 8 -15 10 -15 15 0 4 10 3 15 -3 11 -6 -3 -10 -2 -10
3 0 12 47 25 60 17 6 -3 7 1 4 9 -3 9 -1 16 5 16 6 0 11 -5 11 -11 0 -7 11 0
25 15 14 15 30 24 35 21 6 -3 10 0 10 7 0 9 3 9 10 -2 8 -13 10 -12 10 3 0 9
4 17 9 17 6 0 8 -10 6 -21 -3 -12 -1 -18 3 -15 4 4 7 11 8 14 3 22 18 42 33
42 14 0 14 -2 1 -10 -12 -7 -10 -9 7 -8 14 2 19 7 15 17 -3 8 -1 12 5 8 6 -4
14 0 17 9 5 14 9 14 23 3 9 -8 14 -9 11 -4 -4 6 2 17 14 24 11 7 17 8 13 2 -3
-6 -1 -11 4 -11 6 0 11 7 11 15 0 9 6 12 17 8 10 -4 14 -2 10 4 -5 7 4 10 22
9 17 -1 27 2 25 9 -2 5 7 15 21 22 16 7 23 7 19 1 -4 -6 -1 -8 7 -6 8 3 13 11
11 17 -1 6 1 10 5 9 5 -1 18 3 29 10 12 6 24 8 28 5 3 -3 6 -2 6 3 0 5 15 18
34 28 39 21 46 39 53 139 5 79 -5 102 -64 138 -38 24 -310 150 -349 163 -23 7
-35 42 -119 356 -26 96 -80 297 -120 445 -41 149 -113 414 -160 590 -47 176
-113 417 -145 535 -32 118 -73 270 -91 338 -18 67 -35 122 -38 121 -3 0 -98
-35 -211 -78z"/>
<path d="M107 1539 c7 -7 15 -10 18 -7 3 3 -2 9 -12 12 -14 6 -15 5 -6 -5z"/>
<path d="M154 1521 c0 -11 4 -17 8 -15 10 7 10 34 0 34 -4 0 -8 -9 -8 -19z"/>
<path d="M220 1500 c0 -5 5 -10 11 -10 5 0 7 5 4 10 -3 6 -8 10 -11 10 -2 0
-4 -4 -4 -10z"/>
<path d="M276 1462 c-3 -5 1 -9 9 -9 8 0 12 4 9 9 -3 4 -7 8 -9 8 -2 0 -6 -4
-9 -8z"/>
<path d="M471 1364 c0 -11 3 -14 6 -6 3 7 2 16 -1 19 -3 4 -6 -2 -5 -13z"/>
<path d="M593 1289 c-2 -23 3 -25 10 -4 4 8 3 16 -1 19 -4 3 -9 -4 -9 -15z"/>
<path d="M675 1261 c-3 -5 -2 -12 3 -15 5 -3 9 1 9 9 0 17 -3 19 -12 6z"/>
<path d="M780 1209 c0 -5 -6 -7 -12 -3 -7 4 -9 3 -5 -1 13 -15 36 -14 30 1 -6
17 -13 18 -13 3z"/>
<path d="M815 1190 c-3 -5 -5 -10 -3 -11 33 -8 38 -7 27 7 -14 17 -16 17 -24
4z"/>
<path d="M861 1164 c0 -11 3 -14 6 -6 3 7 2 16 -1 19 -3 4 -6 -2 -5 -13z"/>
<path d="M1000 1080 c-9 -6 -10 -10 -3 -10 6 0 15 5 18 10 8 12 4 12 -15 0z"/>
<path d="M1166 1017 c3 -10 9 -15 12 -12 3 3 0 11 -7 18 -10 9 -11 8 -5 -6z"/>
<path d="M1266 962 c-3 -5 1 -9 9 -9 8 0 12 4 9 9 -3 4 -7 8 -9 8 -2 0 -6 -4
-9 -8z"/>
<path d="M1460 860 c-9 -6 -10 -10 -3 -10 6 0 15 5 18 10 8 12 4 12 -15 0z"/>
<path d="M3793 815 c-3 -9 -3 -18 -1 -21 3 -3 8 4 11 16 6 23 -1 27 -10 5z"/>
<path d="M1560 810 c-9 -6 -10 -10 -3 -10 6 0 15 5 18 10 8 12 4 12 -15 0z"/>
<path d="M3744 784 c-18 -14 -18 -15 4 -4 12 6 22 13 22 15 0 8 -5 6 -26 -11z"/>
<path d="M1589 763 c-13 -16 -12 -17 4 -4 16 13 21 21 13 21 -2 0 -10 -8 -17
-17z"/>
<path d="M1830 670 c-13 -8 -12 -10 3 -10 9 0 17 5 17 10 0 12 -1 12 -20 0z"/>
<path d="M1860 660 c0 -5 5 -10 11 -10 5 0 7 5 4 10 -3 6 -8 10 -11 10 -2 0
-4 -4 -4 -10z"/>
<path d="M3355 620 c-3 -5 -1 -10 4 -10 6 0 11 5 11 10 0 6 -2 10 -4 10 -3 0
-8 -4 -11 -10z"/>
<path d="M1954 609 c-4 -7 -3 -9 4 -5 5 3 13 0 15 -6 4 -9 6 -10 6 -1 1 17
-16 25 -25 12z"/>
<path d="M1990 596 c0 -2 7 -7 16 -10 8 -3 12 -2 9 4 -6 10 -25 14 -25 6z"/>
<path d="M2039 553 c-13 -17 -13 -17 5 -3 18 14 19 13 12 -5 -6 -16 -5 -18 5
-7 9 8 10 15 3 22 -8 8 -15 5 -25 -7z"/>
<path d="M3286 558 c3 -5 10 -6 15 -3 13 9 11 12 -6 12 -8 0 -12 -4 -9 -9z"/>
<path d="M2130 501 c0 -6 4 -13 10 -16 6 -3 7 1 4 9 -7 18 -14 21 -14 7z"/>
<path d="M2210 480 c0 -5 5 -10 11 -10 5 0 7 5 4 10 -3 6 -8 10 -11 10 -2 0
-4 -4 -4 -10z"/>
<path d="M2291 434 c0 -11 3 -14 6 -6 3 7 2 16 -1 19 -3 4 -6 -2 -5 -13z"/>
<path d="M2355 400 c-3 -5 -2 -10 4 -10 5 0 13 5 16 10 3 6 2 10 -4 10 -5 0
-13 -4 -16 -10z"/>
<path d="M2370 360 c0 -5 5 -10 11 -10 5 0 7 5 4 10 -3 6 -8 10 -11 10 -2 0
-4 -4 -4 -10z"/>
<path d="M2433 355 c0 -8 4 -12 9 -9 5 3 6 10 3 15 -9 13 -12 11 -12 -6z"/>
<path d="M2520 350 c-8 -5 -12 -12 -9 -15 4 -3 12 1 19 10 14 17 11 19 -10 5z"/>
<path d="M2690 340 c0 -5 5 -10 11 -10 5 0 7 5 4 10 -3 6 -8 10 -11 10 -2 0
-4 -4 -4 -10z"/>
<path d="M2615 330 c-4 -6 -11 -8 -16 -5 -5 4 -9 1 -9 -4 0 -16 16 -13 30 4 7
8 10 15 7 15 -3 0 -9 -5 -12 -10z"/>
</g>
</svg>
