<?xml version="1.0" standalone="no"?>
<!DOCTYPE svg PUBLIC "-//W3C//DTD SVG 20010904//EN"
 "http://www.w3.org/TR/2001/REC-SVG-20010904/DTD/svg10.dtd">
<svg version="1.0" xmlns="http://www.w3.org/2000/svg"
 width="700.000000pt" height="700.000000pt" viewBox="0 0 700.000000 700.000000"
 preserveAspectRatio="xMidYMid meet">
<metadata>
Created by potrace 1.11, written by Peter Selinger 2001-2013
</metadata>
<g transform="translate(0.000000,700.000000) scale(0.100000,-0.100000)"
fill="#000000" stroke="none">
<path d="M1065 6989 c-154 -27 -237 -51 -353 -105 -312 -144 -554 -423 -656
-754 -57 -187 -54 -40 -52 -2655 1 -1325 5 -2421 9 -2435 4 -14 10 -41 13 -60
3 -19 19 -75 35 -125 127 -384 413 -669 799 -795 48 -16 105 -31 127 -35 21
-3 50 -8 63 -12 14 -4 1107 -8 2430 -9 2645 -3 2467 -7 2665 58 323 105 593
343 737 648 46 96 75 190 98 315 19 96 19 190 17 2500 -1 1320 -6 2414 -10
2430 -4 17 -12 54 -18 83 -33 167 -136 376 -253 515 -173 207 -434 367 -676
416 -30 6 -68 14 -85 18 -42 11 -4829 13 -4890 2z"/>
</g>
</svg>
