<?xml version="1.0" standalone="no"?>
<!DOCTYPE svg PUBLIC "-//W3C//DTD SVG 20010904//EN"
 "http://www.w3.org/TR/2001/REC-SVG-20010904/DTD/svg10.dtd">
<svg version="1.0" xmlns="http://www.w3.org/2000/svg"
 width="500.000000pt" height="500.000000pt" viewBox="0 0 500.000000 500.000000"
 preserveAspectRatio="xMidYMid meet">
<metadata>
Created by potrace 1.11, written by Peter Selinger 2001-2013
</metadata>
<g transform="translate(0.000000,500.000000) scale(0.100000,-0.100000)"
fill="#000000" stroke="none">
<path d="M2863 3912 c-13 -2 -23 -8 -23 -14 0 -6 -3 -8 -7 -5 -3 4 -11 -3 -17
-15 -6 -12 -17 -23 -25 -26 -8 -3 -11 0 -8 6 7 11 -21 21 -40 15 -7 -3 -13
-10 -13 -17 0 -7 -9 -21 -20 -31 -16 -15 -21 -15 -25 -3 -8 22 -43 20 -50 -3
-5 -14 -12 -18 -23 -13 -45 19 -56 11 -70 -51 -15 -68 -28 -88 -42 -65 -5 8
-20 16 -32 17 -13 2 -32 4 -43 6 -11 3 -31 0 -44 -5 -13 -5 -27 -5 -30 -1 -21
28 -63 -10 -66 -61 -4 -48 -11 -56 -51 -56 -27 0 -37 -5 -44 -22 -5 -13 -9
-20 -9 -16 -1 3 -13 3 -28 -1 -18 -5 -30 -17 -38 -42 -9 -24 -18 -34 -33 -34
-12 0 -26 -5 -32 -11 -12 -12 -19 -125 -8 -117 5 2 4 -6 0 -19 -4 -13 -5 -43
-2 -68 5 -43 7 -45 37 -45 17 0 34 -2 36 -5 3 -3 8 -38 10 -78 5 -66 3 -72
-14 -72 -10 0 -19 5 -19 10 0 6 -27 38 -60 71 -33 33 -60 62 -60 65 0 3 -18
24 -41 47 -97 100 -109 114 -109 125 0 7 -7 12 -15 12 -8 0 -15 3 -15 8 0 4
-19 28 -43 54 -23 25 -69 76 -102 113 -98 108 -116 125 -129 125 -6 0 -33 -22
-60 -50 -27 -27 -52 -50 -56 -50 -22 0 -15 -31 13 -62 18 -18 50 -54 71 -78
50 -57 196 -218 218 -241 9 -10 13 -21 10 -25 -4 -4 -2 -4 5 -1 6 4 24 -10 41
-34 17 -23 40 -48 51 -56 12 -8 21 -20 21 -26 0 -7 13 -21 29 -31 16 -11 36
-32 45 -47 9 -15 29 -38 44 -51 15 -13 28 -25 27 -28 0 -3 30 -36 67 -75 97
-101 128 -138 128 -155 1 -8 5 -36 9 -62 10 -60 4 -70 -34 -54 -17 7 -34 12
-38 12 -5 -1 -13 7 -18 17 -6 9 -14 15 -20 12 -5 -4 -12 1 -15 9 -3 9 -10 13
-15 10 -5 -3 -9 0 -9 5 0 6 -3 11 -7 10 -16 -2 -53 14 -53 22 0 5 -7 9 -15 9
-7 0 -19 8 -24 18 -6 9 -11 13 -11 8 0 -5 -8 -2 -19 8 -10 9 -28 18 -40 21
-12 2 -29 12 -38 21 -10 9 -38 26 -63 37 -25 11 -58 29 -75 42 -16 12 -55 35
-85 50 -30 15 -70 39 -87 53 -18 13 -33 21 -33 17 0 -4 -15 4 -34 19 -19 14
-39 26 -44 26 -5 0 -15 7 -22 15 -7 8 -15 13 -19 11 -3 -2 -19 5 -36 15 -16
10 -40 24 -52 30 -13 7 -23 16 -23 21 0 4 -6 8 -13 8 -7 0 -29 9 -49 20 l-37
20 -26 -34 c-14 -18 -25 -38 -25 -44 0 -7 -4 -12 -10 -12 -5 0 -10 -8 -10 -17
0 -10 -7 -27 -15 -37 -8 -10 -12 -23 -9 -27 3 -5 -11 -39 -31 -76 -33 -62 -34
-68 -18 -77 10 -6 23 -11 29 -12 18 -3 54 -37 54 -51 0 -10 -8 -10 -32 3 -18
9 -41 23 -50 31 -10 9 -23 13 -30 10 -17 -6 -80 -126 -72 -138 3 -5 0 -17 -5
-26 -6 -11 -11 -13 -11 -5 0 21 -16 5 -39 -38 -11 -22 -20 -50 -18 -62 1 -16
-3 -23 -18 -23 -14 0 -24 -14 -38 -57 -11 -32 -24 -56 -30 -55 -15 3 -65 -103
-65 -138 -1 -78 40 -120 198 -208 138 -76 131 -69 170 -164 40 -95 43 -122 17
-148 -10 -9 -15 -20 -12 -25 3 -5 1 -10 -4 -12 -15 -6 -92 -141 -84 -149 14
-13 167 -89 181 -89 6 0 12 -4 12 -9 0 -5 12 -14 28 -19 15 -6 37 -19 49 -29
21 -17 22 -26 24 -160 l1 -143 536 0 c959 0 1826 0 1873 0 l45 0 -1 143 c-2
155 0 168 21 160 8 -3 14 0 14 6 0 7 8 14 18 17 30 11 177 87 182 95 3 5 16
10 28 12 12 2 24 6 27 9 8 8 -18 59 -71 137 -24 35 -41 67 -38 72 3 5 0 9 -6
9 -13 0 -8 32 14 103 8 26 15 48 14 50 0 1 6 18 14 37 8 19 21 53 28 75 7 22
16 44 21 49 5 6 9 18 9 27 0 19 -14 19 -63 0 -37 -15 -37 -15 -37 14 0 14 3
25 8 25 4 0 13 24 20 53 7 28 17 54 22 55 6 2 10 12 10 23 0 10 5 19 12 19 6
0 9 3 5 6 -3 3 3 29 15 58 11 28 21 58 23 66 2 8 13 38 26 65 12 28 23 55 25
62 3 16 53 143 66 171 8 15 15 19 22 12 5 -5 20 -10 31 -10 21 0 22 4 19 83
-2 45 -3 87 -3 93 -1 13 -70 41 -121 49 -19 3 -56 10 -81 16 l-46 10 23 68
c13 38 25 79 27 92 2 13 15 61 30 106 15 46 28 93 31 105 6 33 55 188 70 221
l13 28 37 -51 c21 -29 40 -59 43 -68 4 -10 20 -37 38 -62 18 -25 35 -53 38
-63 5 -14 11 -16 27 -7 25 13 25 14 -5 58 -14 20 -25 40 -25 45 0 4 -18 32
-40 62 -22 30 -40 57 -40 61 0 3 -17 32 -38 64 -39 57 -39 58 -65 42 -19 -12
-29 -30 -38 -67 -6 -27 -25 -89 -41 -137 -16 -48 -31 -100 -32 -115 -2 -15 -5
-28 -6 -28 -1 0 -3 -7 -5 -15 -2 -8 -17 -57 -34 -108 -17 -51 -34 -110 -37
-132 -4 -22 -11 -43 -15 -46 -5 -3 -7 -9 -4 -14 9 -14 -13 -22 -33 -11 -18 9
-58 19 -107 26 -16 2 -67 15 -120 31 -157 47 -235 61 -235 42 0 -7 -11 -23
-24 -37 -13 -15 -33 -43 -44 -63 -19 -33 -19 -38 -6 -49 12 -10 14 -26 10 -71
-9 -79 -16 -137 -23 -178 -9 -59 -10 -63 -17 -115 -4 -27 -10 -61 -13 -75 -2
-14 -6 -34 -8 -45 -2 -11 -4 -20 -5 -20 -2 0 -4 -11 -6 -25 -2 -14 -6 -47 -10
-75 -7 -52 -16 -65 -43 -60 -9 2 -24 4 -34 4 -13 1 -16 7 -13 24 3 12 8 60 10
107 3 47 8 99 10 115 3 17 8 53 11 80 3 28 8 64 10 80 3 17 7 53 9 80 3 28 8
61 11 75 5 24 9 67 20 200 3 36 8 79 12 95 3 17 6 41 7 55 1 23 5 25 51 25
l50 0 0 128 1 127 -31 1 c-16 1 -33 1 -37 0 -5 0 -8 5 -8 12 0 7 -9 23 -21 35
-11 13 -22 32 -24 44 -3 12 -9 24 -14 27 -4 3 -12 20 -15 37 -8 35 -34 50 -86
50 -31 -1 -35 -5 -40 -31 -4 -22 -11 -31 -30 -33 -13 -2 -33 -10 -44 -18 -17
-12 -22 -12 -35 0 -9 8 -20 15 -25 15 -6 1 -11 20 -12 43 -2 35 3 46 27 69 24
22 27 31 20 51 -5 12 -14 22 -21 20 -23 -5 -37 18 -34 56 1 21 -1 43 -4 49 -9
13 -41 20 -69 15z m-1846 -1334 c27 -13 50 -26 53 -29 3 -4 27 -20 53 -37 28
-18 43 -33 37 -37 -21 -13 -170 74 -194 113 -10 17 -4 15 51 -10z m-103 -103
c20 -14 41 -25 46 -25 4 0 10 -4 12 -9 2 -5 10 -11 18 -13 8 -2 34 -15 59 -30
33 -21 48 -25 58 -17 7 6 13 17 13 23 1 12 35 56 44 56 13 0 5 -31 -19 -74
-14 -26 -36 -66 -50 -92 -14 -25 -25 -49 -25 -54 0 -5 20 -20 45 -32 69 -36
179 -101 194 -116 47 -46 -66 3 -218 94 -35 22 -68 39 -73 39 -5 0 -12 5 -16
11 -4 7 -27 21 -52 33 -68 33 -86 49 -72 63 9 9 18 7 40 -9 27 -20 114 -65
117 -60 1 1 11 15 23 31 30 39 28 51 -10 67 -18 7 -35 16 -38 19 -3 4 -27 19
-55 35 -67 36 -105 64 -105 76 0 16 26 10 64 -16z m755 -45 c14 0 33 -28 23
-34 -9 -5 -71 23 -97 44 -8 7 -15 19 -15 26 0 10 11 7 40 -11 22 -14 44 -25
49 -25z m-168 -140 c23 -19 23 -19 4 -20 -21 0 -45 17 -45 32 0 14 17 9 41
-12z m105 -883 c0 -95 -3 -148 -10 -150 -9 -3 -33 -2 -79 2 -5 1 -5 11 -1 24
10 28 13 127 4 127 -3 0 -12 -34 -19 -75 -11 -66 -15 -75 -34 -77 -12 0 -29
-2 -37 -3 -8 -1 -23 3 -33 8 -17 8 -17 10 -3 32 10 16 16 47 16 87 0 79 8 93
46 83 16 -5 32 -8 36 -7 4 1 10 -7 13 -18 7 -23 25 -27 25 -5 0 8 -6 15 -12
15 -9 0 -9 3 -3 8 6 4 11 21 12 39 1 50 8 60 45 58 l33 -2 1 -146z m130 118
c-1 -19 0 -35 3 -35 3 0 7 -45 8 -101 0 -55 4 -103 7 -106 15 -15 21 17 22
123 2 97 0 115 -14 123 -14 8 -14 12 -5 22 19 19 58 -3 79 -43 39 -76 15 -229
-41 -255 -17 -7 -27 -8 -31 -1 -4 7 -9 6 -14 -1 -7 -13 -73 44 -78 68 -6 30
-5 147 3 171 6 20 49 70 61 70 2 0 2 -16 0 -35z m260 -15 c1 -25 4 -56 8 -70
30 -120 19 -202 -26 -185 -14 6 -28 45 -33 95 -1 8 -4 22 -8 30 -9 24 -37 145
-37 162 0 12 11 15 47 14 l47 -2 2 -44z m229 21 c-11 -26 -12 -214 -1 -239 12
-29 5 -35 -50 -37 l-45 -1 6 35 c10 53 6 220 -5 241 -9 16 -6 19 22 22 54 5
80 -2 73 -21z m188 18 l37 2 0 -46 c0 -27 -5 -48 -12 -50 -17 -7 -15 -80 3
-101 7 -9 14 -33 14 -54 1 -32 -3 -39 -22 -43 -13 -2 -30 1 -39 8 -15 11 -15
13 4 26 11 8 24 27 27 42 6 23 5 26 -11 20 -12 -4 -15 -3 -10 5 4 7 0 19 -8
27 -14 14 -14 19 1 50 9 19 20 32 25 29 9 -6 4 39 -7 56 -3 5 -14 10 -24 10
-16 0 -18 -12 -17 -135 1 -145 4 -137 -49 -137 -38 0 -46 2 -39 14 11 18 14
247 3 254 -29 17 7 34 56 26 17 -2 47 -4 68 -3z m293 2 c18 -1 26 -46 30 -153
1 -53 7 -106 14 -117 6 -12 9 -21 8 -22 -2 0 -21 -2 -43 -3 -53 -3 -78 9 -66
32 5 9 9 68 9 130 0 89 -3 112 -14 112 -17 0 -19 17 -2 22 7 3 21 3 33 2 11
-1 25 -3 31 -3z m379 -3 c6 -4 12 -24 13 -45 2 -21 8 -42 16 -48 16 -13 15
-27 -10 -135 -3 -14 -7 -33 -7 -42 -2 -29 -17 -21 -23 12 -4 16 -10 27 -15 24
-5 -3 -8 3 -7 13 3 36 -2 64 -11 59 -5 -4 -7 4 -3 16 3 13 1 19 -5 15 -7 -5
-10 6 -8 31 2 22 -4 50 -15 69 -12 21 -15 33 -7 36 17 5 71 2 82 -5z m141 -1
c4 -4 2 -12 -3 -19 -13 -16 -15 -238 -3 -238 4 0 7 -8 6 -17 -3 -17 -14 -19
-95 -14 -21 1 -22 3 -10 18 10 11 14 50 14 137 1 67 4 126 8 132 7 12 72 12
83 1z m145 -36 c0 -25 0 -90 0 -145 l-1 -98 30 33 30 34 -21 17 c-25 21 -32
76 -14 101 16 22 22 13 23 -35 1 -68 1 -70 17 -64 8 3 15 0 16 -7 0 -7 2 -22
3 -33 6 -50 -7 -59 -80 -58 -115 3 -108 1 -92 27 15 23 17 210 4 252 -6 18 -2
20 38 21 l46 1 1 -46z m75 -4 c2 -49 -10 -71 -21 -38 -3 10 -14 29 -25 41 -30
34 -25 49 13 46 31 -2 32 -4 33 -49z m111 45 c23 -15 21 -65 -6 -167 0 -3 -1
-13 -1 -22 0 -27 -18 -2 -23 32 -2 17 -7 37 -10 45 -12 29 -14 75 -4 98 11 23
23 27 44 14z m-625 -128 c-2 -81 1 -131 8 -139 13 -16 -11 -31 -45 -29 -71 4
-67 2 -51 27 10 15 15 54 15 126 2 117 10 141 49 141 l27 0 -3 -126z m-289 61
c4 -8 2 -17 -3 -20 -6 -4 -10 3 -10 14 0 25 6 27 13 6z m915 -153 c19 -13 23
-50 6 -67 -35 -34 -69 -3 -52 47 10 29 23 34 46 20z m-510 -27 c19 -40 15 -53
-14 -49 -35 3 -36 5 -22 42 15 39 21 40 36 7z"/>
<path d="M1426 1420 c4 -19 6 -52 6 -72 -2 -28 2 -38 14 -38 8 0 13 4 10 9 -3
5 -8 27 -11 49 -3 22 -10 51 -15 64 -8 19 -9 17 -4 -12z"/>
<path d="M1446 1287 c3 -10 9 -15 12 -12 3 3 0 11 -7 18 -10 9 -11 8 -5 -6z"/>
</g>
</svg>
